<svg width="1920" height="211" viewBox="0 0 1920 211" fill="none" xmlns="http://www.w3.org/2000/svg">
<path fill-rule="evenodd" clip-rule="evenodd" d="M0 8.05522L80.1758 17.955C160.352 27.1476 320.703 46.9471 479.648 37.0473C640 27.1476 800.352 -11.0371 960.703 3.10534C1119.65 17.955 1280 85.1318 1440.35 99.9814C1600.7 114.124 1759.65 75.9392 1839.82 56.1397L1920 37.0473V211H1839.82C1759.65 211 1600.7 211 1440.35 211C1280 211 1119.65 211 960.703 211C800.352 211 640 211 479.648 211C320.703 211 160.352 211 80.1758 211H0V8.05522Z" fill="#ED4A6A"/>
</svg>
