<svg class="animated" id="freepik_stories-plain-credit-card" xmlns="http://www.w3.org/2000/svg" viewBox="0 0 500 500" version="1.1" xmlns:xlink="http://www.w3.org/1999/xlink" xmlns:svgjs="http://svgjs.com/svgjs"><style>svg#freepik_stories-plain-credit-card:not(.animated) .animable {opacity: 0;}svg#freepik_stories-plain-credit-card.animated #freepik--Floor--inject-146 {animation: 1s 1 forwards cubic-bezier(.36,-0.01,.5,1.38) zoomIn;animation-delay: 0s;}svg#freepik_stories-plain-credit-card.animated #freepik--Shadows--inject-146 {animation: 1s 1 forwards cubic-bezier(.36,-0.01,.5,1.38) lightSpeedLeft;animation-delay: 0s;}svg#freepik_stories-plain-credit-card.animated #freepik--Plants--inject-146 {animation: 1s 1 forwards cubic-bezier(.36,-0.01,.5,1.38) fadeIn;animation-delay: 0s;}svg#freepik_stories-plain-credit-card.animated #freepik--Wallet--inject-146 {animation: 1s 1 forwards cubic-bezier(.36,-0.01,.5,1.38) slideDown;animation-delay: 0s;}svg#freepik_stories-plain-credit-card.animated #freepik--Card--inject-146 {animation: 1s 1 forwards cubic-bezier(.36,-0.01,.5,1.38) slideUp,1.5s Infinite  linear floating;animation-delay: 0s,1s;}svg#freepik_stories-plain-credit-card.animated #freepik--Coins--inject-146 {animation: 1s 1 forwards cubic-bezier(.36,-0.01,.5,1.38) zoomOut;animation-delay: 0s;}            @keyframes zoomIn {                0% {                    opacity: 0;                    transform: scale(0.5);                }                100% {                    opacity: 1;                    transform: scale(1);                }            }                    @keyframes lightSpeedLeft {              from {                transform: translate3d(-50%, 0, 0) skewX(20deg);                opacity: 0;              }              60% {                transform: skewX(-10deg);                opacity: 1;              }              80% {                transform: skewX(2deg);              }              to {                opacity: 1;                transform: translate3d(0, 0, 0);              }            }                    @keyframes fadeIn {                0% {                    opacity: 0;                }                100% {                    opacity: 1;                }            }                    @keyframes slideDown {                0% {                    opacity: 0;                    transform: translateY(-30px);                }                100% {                    opacity: 1;                    transform: translateY(0);                }            }                    @keyframes slideUp {                0% {                    opacity: 0;                    transform: translateY(30px);                }                100% {                    opacity: 1;                    transform: inherit;                }            }                    @keyframes floating {                0% {                    opacity: 1;                    transform: translateY(0px);                }                50% {                    transform: translateY(-10px);                }                100% {                    opacity: 1;                    transform: translateY(0px);                }            }                    @keyframes zoomOut {                0% {                    opacity: 0;                    transform: scale(1.5);                }                100% {                    opacity: 1;                    transform: scale(1);                }            }        </style><g id="freepik--Floor--inject-146" class="animable" style="transform-origin: 253.105px 307.963px;"><path d="M89.91,393.22c90.13,47.08,236.27,47.08,326.39,0s90.14-123.43,0-170.51-236.26-47.09-326.39,0S-.22,346.13,89.91,393.22Z" style="fill: rgb(245, 245, 245); transform-origin: 253.105px 307.963px;" id="elg5ed796m3tf" class="animable"></path></g><g id="freepik--Shadows--inject-146" class="animable" style="transform-origin: 253.085px 281.071px;"><path d="M369.74,310.45c-12.09-7-31.68-7-43.77,0s-12.08,18.29,0,25.27,31.68,7,43.77,0S381.83,317.43,369.74,310.45Z" style="fill: rgb(224, 224, 224); transform-origin: 347.857px 323.081px;" id="elkc6qjrmg3ee" class="animable"></path><path d="M369.74,310.45c-12.09-7-31.68-7-43.77,0s-12.08,18.29,0,25.27,31.68,7,43.77,0S381.83,317.43,369.74,310.45Z" style="fill: rgb(224, 224, 224); transform-origin: 347.857px 323.081px;" id="el1cairvrkigt" class="animable"></path><path d="M133.31,226.43c-12.08-7-31.68-7-43.76,0s-12.09,18.29,0,25.27,31.68,7,43.76,0S145.4,233.41,133.31,226.43Z" style="fill: rgb(224, 224, 224); transform-origin: 111.43px 239.061px;" id="el4ymnnikyfai" class="animable"></path><path d="M416.62,253.7c-12.09-7-31.69-7-43.77,0s-12.09,18.3,0,25.27,31.68,7,43.77,0S428.7,260.68,416.62,253.7Z" style="fill: rgb(224, 224, 224); transform-origin: 394.735px 266.329px;" id="elox31m64cdc" class="animable"></path></g><g id="freepik--Plants--inject-146" class="animable" style="transform-origin: 264.583px 289.976px;"><path d="M136.14,340.75a90,90,0,0,0-6.07-25.83c-5.39-13.31-14.74-24.1-26.68-26.63S86.89,292,87.9,299.07s11,12.43,17.78,18.36S125,337.7,128.49,351.54l6.74.74Z" style="fill: #33D761; transform-origin: 111.952px 319.998px;" id="elidye7mv9dd9" class="animable"></path><g id="elc1xmz2goxsk"><path d="M136.14,340.75a90,90,0,0,0-6.07-25.83c-5.39-13.31-14.74-24.1-26.68-26.63S86.89,292,87.9,299.07s11,12.43,17.78,18.36S125,337.7,128.49,351.54l6.74.74Z" style="opacity: 0.2; transform-origin: 111.952px 319.998px;" class="animable" id="elyuczz4c16o"></path></g><path d="M132.73,352.32h0a.51.51,0,0,1-.47-.53c1.52-23.74-13.94-50-35.2-59.77a.49.49,0,0,1-.25-.66.51.51,0,0,1,.66-.25c21.62,9.94,37.34,36.62,35.79,60.74A.5.5,0,0,1,132.73,352.32Z" style="fill: rgb(245, 245, 245); transform-origin: 115.064px 321.695px;" id="elvhucz73nxin" class="animable"></path><path d="M135.69,394.13s-7,4.4-17.84,2.53-13.19-9.27-14.12-16.59-6.27-4-13.56-7-8.49-10.5-6.86-16.12A16.54,16.54,0,0,1,87,350.37s-5.15-2.25-9.81-10.06a74.06,74.06,0,0,1-5-11s5.92-4.52,17.61-2.07a29.53,29.53,0,0,1,10.85,4.89S107,325,115.66,327.6a9.89,9.89,0,0,1,6.35,6.13,29.52,29.52,0,0,0,1.42,3.55,6,6,0,0,0,4.44,2.49c4.13.6,8-.1,11.8,2a12,12,0,0,1,4.3,4.8C149.62,356.57,135.69,394.13,135.69,394.13Z" style="fill: #33D761; transform-origin: 108.754px 361.817px;" id="el8wn0mne6n72" class="animable"></path><path d="M140.47,380a.52.52,0,0,1-.43-.24c-17-27.58-43.89-43.52-61.77-48.79a.5.5,0,0,1,.28-1c18,5.32,45.21,21.41,62.34,49.22a.51.51,0,0,1-.42.77Z" style="fill: rgb(245, 245, 245); transform-origin: 109.427px 354.976px;" id="el0mvaen47x97" class="animable"></path><path d="M95.55,358.3a.52.52,0,0,1-.38-.17.49.49,0,0,1,0-.7c.34-.31,8.47-7.36,19.51-7.55a.49.49,0,0,1,.51.49.5.5,0,0,1-.49.51c-10.68.18-18.79,7.22-18.87,7.3A.52.52,0,0,1,95.55,358.3Z" style="fill: rgb(245, 245, 245); transform-origin: 105.107px 354.09px;" id="elwzr8qoow37f" class="animable"></path><path d="M108.37,346.06a.51.51,0,0,1-.5-.45,25.68,25.68,0,0,1,2.22-12.93.5.5,0,1,1,.9.44,25.07,25.07,0,0,0-2.12,12.38.51.51,0,0,1-.44.56Z" style="fill: rgb(245, 245, 245); transform-origin: 109.406px 339.229px;" id="el7apcdiev39l" class="animable"></path><path d="M410.53,237.11s-4.09-13.34-2.06-26,8-22.56,15.86-26.73,17.63.44,11.18,9.34-19.58,20.83-18.33,43.08Z" style="fill: rgb(55, 71, 79); transform-origin: 422.756px 209.969px;" id="elninoa5nwx9" class="animable"></path><path d="M413.75,237.38a.41.41,0,0,1-.39-.3c-4.37-16.14,2-42,16.72-51.19a.4.4,0,0,1,.42.68c-14.45,9-20.66,34.43-16.37,50.3a.41.41,0,0,1-.28.5Z" style="fill: rgb(245, 245, 245); transform-origin: 421.34px 211.61px;" id="el6d4qo8lr4wp" class="animable"></path><path d="M421.38,251.7a8.69,8.69,0,0,0,4,1.06,11.7,11.7,0,0,0,4.83-.73c2.74-1,5-2.6,5.72-5.56.54-2.33-.32-5,.7-7.2s4.07-3.56,6.16-4.22c1.47-.47,3-.69,4.45-1.24a5.71,5.71,0,0,0,3.41-2.91c1.38-3.4-2.39-7.25-1.15-10.7.61-1.71,2.28-2.76,3.82-3.74s3.17-2.14,3.59-3.91a5.07,5.07,0,0,0-1.52-4.5c-2.75-2.84-7.36-3.11-11.05-1.7a37,37,0,0,1-3.49,1.35c-4.64,1.21-9.59-1.83-14.26-.73a8.45,8.45,0,0,0-6.17,6.24c-.22,1-.25,2.07-.49,3.09-.59,2.55-3.28,3.09-3.92,5.7-.59,2.36.15,4.84.56,7.17.62,3.58,1.32,7.14,2.07,10.7q.6,2.9,1.24,5.78c.39,1.78-.13,3.72.66,5.35A8.87,8.87,0,0,0,421.38,251.7Z" style="fill: rgb(69, 90, 100); transform-origin: 436.383px 229.15px;" id="elzci7qvhbdg" class="animable"></path><path d="M420.07,239.08H420a.41.41,0,0,1-.34-.46c2-13,20.29-28.4,32-30a.41.41,0,0,1,.45.35.4.4,0,0,1-.34.45C440.31,211,422.43,226,420.47,238.74A.41.41,0,0,1,420.07,239.08Z" style="fill: rgb(245, 245, 245); transform-origin: 435.885px 223.849px;" id="elq60b1mc2we" class="animable"></path><path d="M430.51,221.69a.4.4,0,0,1-.39-.37c-.73-7.94-3.62-11-3.65-11a.4.4,0,1,1,.58-.56c.12.13,3.11,3.28,3.86,11.54a.39.39,0,0,1-.36.43Z" style="fill: rgb(245, 245, 245); transform-origin: 428.634px 215.683px;" id="elc1v8m2q1ut9" class="animable"></path><path d="M443.22,228.31a.4.4,0,0,1-.15,0c-.09,0-9.05-3.79-16.56-1.75a.4.4,0,0,1-.21-.77c7.78-2.12,16.7,1.62,17.08,1.78a.4.4,0,0,1,.21.53A.39.39,0,0,1,443.22,228.31Z" style="fill: rgb(245, 245, 245); transform-origin: 434.828px 226.729px;" id="el3nngmpq05pj" class="animable"></path></g><g id="freepik--Wallet--inject-146" class="animable" style="transform-origin: 282.59px 181.619px;"><polygon points="364.24 119.81 372.53 124.59 372.53 138.96 364.24 134.17 364.24 119.81" style="fill: rgb(38, 50, 56); transform-origin: 368.385px 129.385px;" id="elbeddh4icdv7" class="animable"></polygon><path d="M357.88,85.17l-26.82,15.48v-31A4.15,4.15,0,0,0,324.71,66L192.06,142.61c-5.13,3-7.7,6.83-7.7,10.71V282.6c0,3.88,2.57,7.76,7.7,10.72l.18.11c10.26,5.92,26.88,5.92,37.14,0L362,216.85a4.94,4.94,0,0,0,2.21-3.83V86.29l-2.08-1.2A4.75,4.75,0,0,0,357.88,85.17Z" style="fill: #33D761; transform-origin: 274.285px 181.619px;" id="elpqutt4p7cmk" class="animable"></path><path d="M192.06,164c-10.22-5.89-10.22-15.54,0-21.43L324.71,66a4.72,4.72,0,0,1,4.28-.08c1.14.66,1.08,1.77-.14,2.47L199.91,142.86c-1.22.71-3.22,1.83-4.35,2.68-6,4.49-6.52,10.48-1.37,14.72a20.77,20.77,0,0,0,4.39,2.57c7.4,3.09,18,2.78,25.87-.77,1.29-.58,3.26-1.74,4.48-2.44l129-74.45a4.75,4.75,0,0,1,4.28-.08c1.15.66,1.09,1.77-.13,2.48L229.38,164.15c-10.22,5.9-26.92,5.9-37.14,0Z" style="fill: #33D761; transform-origin: 273.715px 117.011px;" id="el8atxdsbkhho" class="animable"></path><g id="el8wzij9rvm2"><path d="M192.06,164c-10.22-5.89-10.22-15.54,0-21.43L324.71,66a4.72,4.72,0,0,1,4.28-.08c1.14.66,1.08,1.77-.14,2.47L199.91,142.86c-1.22.71-3.22,1.83-4.35,2.68-6,4.49-6.52,10.48-1.37,14.72a20.77,20.77,0,0,0,4.39,2.57c7.4,3.09,18,2.78,25.87-.77,1.29-.58,3.26-1.74,4.48-2.44l129-74.45a4.75,4.75,0,0,1,4.28-.08c1.15.66,1.09,1.77-.13,2.48L229.38,164.15c-10.22,5.9-26.92,5.9-37.14,0Z" style="opacity: 0.3; transform-origin: 273.715px 117.011px;" class="animable" id="el95n4jocwzsr"></path></g><path d="M188.73,171.76a.52.52,0,0,1-.33-.12,16.48,16.48,0,0,1-1.81-1.84.5.5,0,0,1,.77-.64,15.28,15.28,0,0,0,1.7,1.72.51.51,0,0,1,.05.71A.52.52,0,0,1,188.73,171.76Z" style="fill: rgb(245, 245, 245); transform-origin: 187.853px 170.37px;" id="elxxop5xkwla" class="animable"></path><path d="M212.42,178.62a.5.5,0,0,1-.5-.48.5.5,0,0,1,.49-.52,45,45,0,0,0,5-.45.5.5,0,0,1,.57.42.51.51,0,0,1-.42.57,47.22,47.22,0,0,1-5.08.46Zm-5-.1h0a43.24,43.24,0,0,1-5-.68.49.49,0,0,1-.4-.58.51.51,0,0,1,.59-.4,41.21,41.21,0,0,0,4.93.66.5.5,0,0,1,0,1Zm15-1.41a.5.5,0,0,1-.48-.37.49.49,0,0,1,.34-.61,32.78,32.78,0,0,0,4.66-1.7.49.49,0,0,1,.66.24.5.5,0,0,1-.24.67,33.66,33.66,0,0,1-4.81,1.75Zm-24.85-.54a.45.45,0,0,1-.16,0,30.38,30.38,0,0,1-4.7-2,.5.5,0,0,1,.47-.88,30.42,30.42,0,0,0,4.55,2,.5.5,0,0,1-.16,1Zm34-3.6a.5.5,0,0,1-.25-.93l4.37-2.52a.5.5,0,1,1,.5.86l-4.37,2.52A.45.45,0,0,1,231.52,173Zm8.74-5a.51.51,0,0,1-.44-.25A.5.5,0,0,1,240,167l4.36-2.53a.5.5,0,0,1,.68.19.49.49,0,0,1-.18.68l-4.36,2.52A.47.47,0,0,1,240.26,167.93Zm8.73-5a.5.5,0,0,1-.43-.25.51.51,0,0,1,.18-.69l4.36-2.52a.52.52,0,0,1,.69.19.5.5,0,0,1-.19.68l-4.36,2.52A.47.47,0,0,1,249,162.89Zm8.73-5a.5.5,0,0,1-.43-.25.51.51,0,0,1,.18-.69l4.37-2.52a.49.49,0,0,1,.68.19.5.5,0,0,1-.18.68L258,157.78A.55.55,0,0,1,257.72,157.85Zm8.73-5a.48.48,0,0,1-.43-.25.5.5,0,0,1,.18-.68l4.37-2.52a.49.49,0,0,1,.68.18.51.51,0,0,1-.18.69l-4.37,2.52A.54.54,0,0,1,266.45,152.8Zm8.73-5a.5.5,0,0,1-.25-.93l4.37-2.52a.49.49,0,0,1,.68.18.51.51,0,0,1-.18.69l-4.37,2.52A.54.54,0,0,1,275.18,147.76Zm8.74-5a.5.5,0,0,1-.25-.93l4.36-2.52a.5.5,0,0,1,.5.86l-4.36,2.53A.57.57,0,0,1,283.92,142.72Zm8.73-5a.52.52,0,0,1-.44-.25.51.51,0,0,1,.19-.68l4.36-2.52a.5.5,0,1,1,.5.86l-4.36,2.52A.47.47,0,0,1,292.65,137.68Zm8.73-5a.5.5,0,0,1-.25-.93l4.36-2.52a.51.51,0,0,1,.69.18.5.5,0,0,1-.19.68l-4.36,2.52A.47.47,0,0,1,301.38,132.64Zm8.73-5a.5.5,0,0,1-.25-.93l4.37-2.53a.51.51,0,0,1,.68.19.49.49,0,0,1-.18.68l-4.37,2.52A.45.45,0,0,1,310.11,127.6Zm8.73-5a.5.5,0,0,1-.43-.25.51.51,0,0,1,.18-.69L323,119.1a.51.51,0,0,1,.68.19.49.49,0,0,1-.18.68l-4.37,2.52A.45.45,0,0,1,318.84,122.56Zm8.73-5a.5.5,0,0,1-.43-.25.51.51,0,0,1,.18-.69l4.37-2.52a.49.49,0,0,1,.68.18.51.51,0,0,1-.18.69l-4.37,2.52A.55.55,0,0,1,327.57,117.52Zm8.74-5a.51.51,0,0,1-.44-.25.5.5,0,0,1,.19-.68l4.36-2.52a.49.49,0,0,1,.68.18.51.51,0,0,1-.18.69l-4.36,2.52A.57.57,0,0,1,336.31,112.47Zm8.73-5a.52.52,0,0,1-.44-.25.51.51,0,0,1,.19-.68l4.36-2.52a.5.5,0,1,1,.5.87l-4.36,2.52A.57.57,0,0,1,345,107.43Z" style="fill: rgb(245, 245, 245); transform-origin: 271.213px 141.537px;" id="elu2wkqg18kj" class="animable"></path><path d="M355.94,103.64a.51.51,0,0,1-.5-.5V101.5l-1.41.82a.49.49,0,0,1-.68-.18.51.51,0,0,1,.18-.69l2.16-1.25a.5.5,0,0,1,.75.44v2.5A.5.5,0,0,1,355.94,103.64Z" style="fill: rgb(245, 245, 245); transform-origin: 354.861px 101.886px;" id="elmm0p6fpbcv8" class="animable"></path><path d="M355.94,203.78a.51.51,0,0,1-.5-.5v-5a.5.5,0,0,1,.5-.5.5.5,0,0,1,.5.5v5A.5.5,0,0,1,355.94,203.78Zm0-10a.5.5,0,0,1-.5-.5v-5a.51.51,0,0,1,.5-.5.5.5,0,0,1,.5.5v5A.5.5,0,0,1,355.94,193.76Zm0-10a.51.51,0,0,1-.5-.5v-5a.5.5,0,0,1,.5-.5.5.5,0,0,1,.5.5v5A.5.5,0,0,1,355.94,183.75Zm0-10a.5.5,0,0,1-.5-.5v-5a.5.5,0,0,1,.5-.5.5.5,0,0,1,.5.5v5A.5.5,0,0,1,355.94,173.73Zm0-10a.5.5,0,0,1-.5-.5v-5a.51.51,0,0,1,.5-.5.5.5,0,0,1,.5.5v5A.5.5,0,0,1,355.94,163.72Zm0-10a.51.51,0,0,1-.5-.5v-5a.5.5,0,0,1,.5-.5.5.5,0,0,1,.5.5v5A.5.5,0,0,1,355.94,153.71Zm0-10a.5.5,0,0,1-.5-.5v-5a.5.5,0,0,1,.5-.5.5.5,0,0,1,.5.5v5A.5.5,0,0,1,355.94,143.69Zm0-10a.51.51,0,0,1-.5-.5v-5a.5.5,0,0,1,.5-.5.5.5,0,0,1,.5.5v5A.5.5,0,0,1,355.94,133.68Zm0-10a.5.5,0,0,1-.5-.5v-5a.5.5,0,0,1,.5-.5.5.5,0,0,1,.5.5v5A.5.5,0,0,1,355.94,123.66Zm0-10a.5.5,0,0,1-.5-.5v-5a.51.51,0,0,1,.5-.5.5.5,0,0,1,.5.5v5A.5.5,0,0,1,355.94,113.65Z" style="fill: rgb(245, 245, 245); transform-origin: 355.94px 155.78px;" id="elxpw1p5mg2kc" class="animable"></path><path d="M353.78,212.53a.5.5,0,0,1-.25-.93l1.91-1.11v-2.21a.51.51,0,0,1,.5-.5.5.5,0,0,1,.5.5v2.5a.5.5,0,0,1-.25.44L354,212.47A.57.57,0,0,1,353.78,212.53Z" style="fill: rgb(245, 245, 245); transform-origin: 354.863px 210.155px;" id="elj4ja09l96c" class="animable"></path><path d="M212.44,288.77a.5.5,0,0,1,0-1,42.71,42.71,0,0,0,5-.46.51.51,0,0,1,.57.42.5.5,0,0,1-.42.57,44.8,44.8,0,0,1-5.08.47Zm-5-.1h0a43.83,43.83,0,0,1-5.05-.68.5.5,0,0,1-.4-.58.51.51,0,0,1,.59-.4,41.77,41.77,0,0,0,4.93.66.5.5,0,0,1,0,1Zm15-1.42a.49.49,0,0,1-.48-.36.5.5,0,0,1,.34-.62,32.34,32.34,0,0,0,4.66-1.7.49.49,0,0,1,.66.25.49.49,0,0,1-.24.66,33.52,33.52,0,0,1-4.8,1.75A.36.36,0,0,1,222.38,287.25Zm-24.85-.53a.45.45,0,0,1-.16,0,30.92,30.92,0,0,1-4.7-2,.5.5,0,0,1,.47-.88,31.47,31.47,0,0,0,4.55,2,.5.5,0,0,1-.16,1Zm34-3.61a.5.5,0,0,1-.25-.93l4.37-2.52a.5.5,0,0,1,.5.86L231.78,283A.45.45,0,0,1,231.53,283.11Zm8.74-5a.5.5,0,0,1-.44-.25.49.49,0,0,1,.19-.68l4.36-2.52a.5.5,0,1,1,.5.86L240.52,278A.47.47,0,0,1,240.27,278.07Zm8.73-5a.51.51,0,0,1-.44-.25.5.5,0,0,1,.19-.68l4.36-2.53a.52.52,0,0,1,.69.19.51.51,0,0,1-.19.68L249.25,273A.47.47,0,0,1,249,273Zm8.73-5a.5.5,0,0,1-.43-.25.51.51,0,0,1,.18-.69l4.36-2.52a.51.51,0,0,1,.69.19.5.5,0,0,1-.19.68L258,267.92A.47.47,0,0,1,257.73,268Zm8.73-5a.5.5,0,0,1-.43-.25.51.51,0,0,1,.18-.69l4.37-2.52a.5.5,0,0,1,.5.87l-4.37,2.52A.55.55,0,0,1,266.46,263Zm8.73-5.05a.48.48,0,0,1-.43-.25.5.5,0,0,1,.18-.68l4.37-2.52a.5.5,0,0,1,.5.87l-4.37,2.52A.54.54,0,0,1,275.19,257.9Zm8.73-5a.5.5,0,0,1-.43-.25.5.5,0,0,1,.18-.68l4.37-2.52a.5.5,0,1,1,.5.86l-4.37,2.53A.51.51,0,0,1,283.92,252.86Zm8.74-5a.5.5,0,0,1-.25-.93l4.36-2.52a.5.5,0,1,1,.5.86l-4.36,2.52A.47.47,0,0,1,292.66,247.82Zm8.73-5a.5.5,0,0,1-.25-.93l4.36-2.52a.5.5,0,1,1,.5.86l-4.36,2.52A.47.47,0,0,1,301.39,242.78Zm8.73-5a.5.5,0,0,1-.25-.93l4.37-2.52a.5.5,0,1,1,.5.86l-4.37,2.52A.47.47,0,0,1,310.12,237.74Zm8.73-5a.5.5,0,0,1-.43-.25.51.51,0,0,1,.18-.69l4.37-2.52a.51.51,0,0,1,.68.19.49.49,0,0,1-.18.68l-4.37,2.52A.45.45,0,0,1,318.85,232.7Zm8.73-5a.5.5,0,0,1-.43-.25.51.51,0,0,1,.18-.69l4.37-2.52a.5.5,0,0,1,.5.87l-4.37,2.52A.45.45,0,0,1,327.58,227.66Zm8.73-5a.5.5,0,0,1-.43-.25.51.51,0,0,1,.18-.69l4.37-2.52a.49.49,0,0,1,.68.18.51.51,0,0,1-.18.69l-4.37,2.52A.52.52,0,0,1,336.31,222.62Zm8.74-5.05a.51.51,0,0,1-.44-.25.51.51,0,0,1,.19-.68l4.36-2.52a.51.51,0,0,1,.69.18.52.52,0,0,1-.19.69l-4.36,2.52A.57.57,0,0,1,345.05,217.57Z" style="fill: rgb(245, 245, 245); transform-origin: 271.233px 251.631px;" id="elejjfvgi8yo" class="animable"></path><path d="M188.73,281.9a.52.52,0,0,1-.33-.12,16.41,16.41,0,0,1-1.81-1.83.52.52,0,0,1,.06-.71.51.51,0,0,1,.71.07,15.28,15.28,0,0,0,1.7,1.72.49.49,0,0,1,.05.7A.48.48,0,0,1,188.73,281.9Z" style="fill: rgb(245, 245, 245); transform-origin: 187.856px 280.514px;" id="el1d956cgvuij" class="animable"></path><path d="M331.06,93.83V78.76a3.92,3.92,0,0,0-1.77-3.07,1.08,1.08,0,0,1,0,2L191.62,157.22a10.44,10.44,0,0,0,2.58,3,21,21,0,0,0,4.38,2.57,31.3,31.3,0,0,0,12.86,2.1l117.86-68A3.92,3.92,0,0,0,331.06,93.83Z" style="fill: rgb(224, 224, 224); transform-origin: 261.34px 120.308px;" id="el31oz8lv3w1a" class="animable"></path><path d="M329.29,75.69l-.61-.35a3.92,3.92,0,0,0-3.53,0L190.71,153a7.34,7.34,0,0,0,.91,4.26L329.29,77.74A1.08,1.08,0,0,0,329.29,75.69Z" style="fill: rgb(235, 235, 235); transform-origin: 260.355px 116.09px;" id="elbyjfe0c4jwm" class="animable"></path><path d="M339.36,83.54a3.94,3.94,0,0,0-1.77-3.06l-.61-.35a3.94,3.94,0,0,0-3.54,0l-139,80.28a21.64,21.64,0,0,0,4.19,2.42c7.41,3.09,18,2.78,25.87-.78,1.29-.58,3.26-1.72,4.48-2.42L339.36,95.87Z" style="fill: rgb(224, 224, 224); transform-origin: 266.9px 122.33px;" id="elaabci9z5hof" class="animable"></path><path d="M198.53,162.81,337.59,82.52a1.08,1.08,0,0,0,0-2l-.61-.35a3.94,3.94,0,0,0-3.54,0l-139,80.28A21.91,21.91,0,0,0,198.53,162.81Z" style="fill: rgb(235, 235, 235); transform-origin: 266.351px 121.28px;" id="el6bqmxjxbn9j" class="animable"></path><path d="M347.65,88.33a3.89,3.89,0,0,0-1.77-3.06l-.61-.36a3.94,3.94,0,0,0-3.54,0L204.06,164.4a36,36,0,0,0,20.39-2.35c1.29-.58,3.26-1.72,4.48-2.42L347.65,91.08Z" style="fill: rgb(224, 224, 224); transform-origin: 275.855px 124.718px;" id="ellbm3mrpjt9" class="animable"></path><path d="M345.88,85.27l-.61-.36a3.94,3.94,0,0,0-3.54,0L204.06,164.4a35.18,35.18,0,0,0,7.38.53L345.88,87.31A1.08,1.08,0,0,0,345.88,85.27Z" style="fill: rgb(235, 235, 235); transform-origin: 275.333px 124.72px;" id="elc7x4tvhlc8k" class="animable"></path><path d="M380.82,131.43v29.43a3.92,3.92,0,0,1-1.76,3.06l-53.7,31-.1,0c-4.06,2.31-7.74,2.61-10.43,1.22-.82-.42-4-2.25-4.74-2.75-2.43-1.57-3.91-4.67-3.91-9,0-9,6.31-19.93,14.24-25h0l50.33-29.05.26-.18c.71-.57.62-1.35-.26-1.86l-6.52-3.77v-4.79l14.82,8.56a3.92,3.92,0,0,1,1.73,2.71A2.07,2.07,0,0,1,380.82,131.43Z" style="fill: #33D761; transform-origin: 343.5px 158.358px;" id="eldhhk6b37iq5" class="animable"></path><g id="ell90oz2792u"><path d="M380.82,131.43v29.43a3.92,3.92,0,0,1-1.76,3.06l-53.7,31-.1,0c-4.06,2.31-7.74,2.61-10.43,1.22-.82-.42-4-2.25-4.74-2.75-2.43-1.57-3.91-4.67-3.91-9,0-9,6.31-19.93,14.24-25h0l50.33-29.05.26-.18c.71-.57.62-1.35-.26-1.86l-6.52-3.77v-4.79l14.82,8.56a3.92,3.92,0,0,1,1.73,2.71A2.07,2.07,0,0,1,380.82,131.43Z" style="opacity: 0.3; transform-origin: 343.5px 158.358px;" class="animable" id="elkm6aaaodk6"></path></g><path d="M380.82,131.43v29.43a3.92,3.92,0,0,1-1.76,3.06l-53.7,31-.1,0c-5.29,3-9.94,2.61-12.6-.5a11.61,11.61,0,0,1-2.33-7.64c0-9.26,6.73-20.64,15-25.44l51.32-29.62,2.38-1.37c.87-.51,1.59-.21,1.73.67A2.07,2.07,0,0,1,380.82,131.43Z" style="fill: #33D761; transform-origin: 345.566px 163.537px;" id="el1xe9zr38nwt" class="animable"></path><path d="M322.77,179.66c0,4,2.78,5.57,6.22,3.59a13.73,13.73,0,0,0,6.22-10.77c0-4-2.79-5.58-6.22-3.59A13.72,13.72,0,0,0,322.77,179.66Z" style="fill: rgb(55, 71, 79); transform-origin: 328.99px 176.068px;" id="elrpj9eee9aa" class="animable"></path><polygon points="335.43 169.63 333.58 168.57 324.59 183.68 326.7 184.9 335.43 169.63" style="fill: rgb(55, 71, 79); transform-origin: 330.01px 176.735px;" id="elcq9lrxho88" class="animable"></polygon><path d="M324.84,180.86c0,4,2.79,5.57,6.22,3.59a13.75,13.75,0,0,0,6.22-10.78c0-4-2.78-5.57-6.22-3.59A13.78,13.78,0,0,0,324.84,180.86Z" style="fill: rgb(69, 90, 100); transform-origin: 331.06px 177.265px;" id="el0hw1vf0tvflt" class="animable"></path></g><g id="freepik--Card--inject-146" class="animable" style="transform-origin: 216.03px 291.205px;"><path d="M137.24,398.94a4.75,4.75,0,0,1-2.07-3.75V275.8a4.86,4.86,0,0,1,2.21-3.82l153.15-88.43a4.15,4.15,0,0,1,6.36,3.67V306.61a4.9,4.9,0,0,1-2.21,3.83L141.53,398.86A4.74,4.74,0,0,1,137.24,398.94Z" style="fill: rgb(69, 90, 100); transform-origin: 216.032px 291.162px;" id="el0h2n86nagam7" class="animable"></path><path d="M143.46,278l-7.64-4.41a4.5,4.5,0,0,0-.65,2.17V395.19a4.15,4.15,0,0,0,6.36,3.67l1.93-1.12Z" style="fill: rgb(38, 50, 56); transform-origin: 139.313px 336.545px;" id="el9xz5bhm5dy4" class="animable"></path><path d="M139.32,278.2V397.59c0,1.41,1,2,2.21,1.27l153.15-88.42a4.9,4.9,0,0,0,2.21-3.83V187.22c0-1.41-1-2-2.21-1.27L141.53,274.37A4.88,4.88,0,0,0,139.32,278.2Z" style="fill: rgb(55, 71, 79); transform-origin: 218.105px 292.405px;" id="elxhxdgzu1vp9" class="animable"></path><path d="M151.76,309.32v18.84c0,1.41,1,2,2.21,1.27l24.6-14.2a4.87,4.87,0,0,0,2.21-3.83V292.56c0-1.41-1-2-2.21-1.27L154,305.49A4.9,4.9,0,0,0,151.76,309.32Z" style="fill: #33D761; transform-origin: 166.27px 310.36px;" id="elokv1scehglg" class="animable"></path><path d="M180.78,297.77v-1.15l-29,16.75v1.16l7.79-4.5v8.46l-7.79,4.5v1.15l29-16.75v-1.16l-7.79,4.5v-8.46ZM172,311.31l-11.44,6.6v-8.46l11.44-6.6Z" style="fill: rgb(245, 245, 245); transform-origin: 166.28px 310.38px;" id="el3o0p0z1hlgg" class="animable"></path><path d="M157.28,287.06v1.64a5,5,0,0,1-2.49,4.53c-1.64.95-2.5.31-2.5-1.65v-6.4a5,5,0,0,1,2.5-4.53c1.64-.94,2.49-.31,2.49,1.65v1.2l-1.58.91v-1.32c0-.87-.33-1-.87-.71a1.81,1.81,0,0,0-.86,1.72v6.63c0,.88.33,1,.86.7a1.77,1.77,0,0,0,.87-1.7V288Z" style="fill: rgb(255, 255, 255); transform-origin: 154.785px 286.942px;" id="el9zhp9plyf3n" class="animable"></path><path d="M161.8,289a3.51,3.51,0,0,1-.15-1.42v-1.93c0-1.15-.34-1.38-1.1-.94l-.57.34v5l-1.68,1V278.77l2.53-1.46c1.73-1,2.48-.5,2.48,1.39v1a4.49,4.49,0,0,1-1.1,3.13c.84-.08,1.11.69,1.11,2v1.9a3.45,3.45,0,0,0,.18,1.39ZM160,279.55v3.78l.65-.38a1.94,1.94,0,0,0,1-1.88v-1.21c0-.88-.26-1.11-.85-.77Z" style="fill: rgb(255, 255, 255); transform-origin: 160.9px 283.928px;" id="elv2tw4jh1jyl" class="animable"></path><path d="M166.09,279.45l2.3-1.33v1.76l-2.3,1.33v3.6l2.89-1.67v1.75l-4.56,2.64V275.24L169,272.6v1.76L166.09,276Z" style="fill: rgb(255, 255, 255); transform-origin: 166.71px 280.065px;" id="el1mqs6j6qylo" class="animable"></path><path d="M170,272l2.65-1.52c1.67-1,2.49-.37,2.49,1.59v6.22a4.87,4.87,0,0,1-2.49,4.48L170,284.3Zm1.68.79v8.79l.94-.55a1.75,1.75,0,0,0,.85-1.68V273c0-.88-.32-1-.85-.7Z" style="fill: rgb(255, 255, 255); transform-origin: 172.573px 277.155px;" id="el1i04b61kf0i" class="animable"></path><path d="M176.22,268.42l1.67-1v12.29l-1.67,1Z" style="fill: rgb(255, 255, 255); transform-origin: 177.055px 274.065px;" id="elg8upziecy0p" class="animable"></path><path d="M178.62,267l5.17-3v1.75l-1.75,1v10.54l-1.67,1V267.78l-1.75,1Z" style="fill: rgb(255, 255, 255); transform-origin: 181.205px 271.145px;" id="ellu4xams7u" class="animable"></path><path d="M191.73,267.17v1.64a5,5,0,0,1-2.49,4.53c-1.64,1-2.49.31-2.49-1.65v-6.4a5,5,0,0,1,2.49-4.53c1.64-.95,2.49-.31,2.49,1.65v1.2l-1.58.91V263.2c0-.87-.33-1-.86-.71a1.8,1.8,0,0,0-.87,1.72v6.63c0,.88.33,1,.87.7a1.78,1.78,0,0,0,.86-1.7v-1.75Z" style="fill: rgb(255, 255, 255); transform-origin: 189.24px 267.061px;" id="elojf4z4lfcn" class="animable"></path><path d="M198.17,268l-1.69,1-.29-2.07-2.05,1.19-.29,2.4-1.54.88,1.7-13.27,2.45-1.42Zm-3.82-1.69,1.61-.93-.8-5.75Z" style="fill: rgb(255, 255, 255); transform-origin: 195.24px 264.055px;" id="eldnuclv36zq" class="animable"></path><path d="M202.44,265.58a3.62,3.62,0,0,1-.15-1.43v-1.93c0-1.14-.33-1.37-1.1-.93l-.57.33v5l-1.68,1V255.3l2.53-1.46c1.73-1,2.48-.5,2.48,1.4v1a4.44,4.44,0,0,1-1.1,3.12c.84-.08,1.11.7,1.11,2v1.89a3.26,3.26,0,0,0,.19,1.39Zm-1.82-9.49v3.78l.65-.38a2,2,0,0,0,1-1.88V256.4c0-.88-.25-1.12-.85-.77Z" style="fill: rgb(255, 255, 255); transform-origin: 201.545px 260.478px;" id="el14jwfldcruk" class="animable"></path><path d="M205.06,251.77l2.65-1.53c1.67-1,2.49-.37,2.49,1.6v6.22a4.87,4.87,0,0,1-2.49,4.48l-2.65,1.52Zm1.67.79v8.78l.94-.54a1.74,1.74,0,0,0,.86-1.69v-6.39c0-.88-.32-1-.86-.7Z" style="fill: rgb(255, 255, 255); transform-origin: 207.633px 256.916px;" id="eldr46xkudmc" class="animable"></path><path d="M151.76,345.24v4.47c0,1.41,1,2,2.21,1.27l24.6-14.2a4.9,4.9,0,0,0,2.21-3.83v-4.47c0-1.41-1-2-2.21-1.28L154,341.41A4.88,4.88,0,0,0,151.76,345.24Z" style="fill: rgb(224, 224, 224); transform-origin: 166.27px 339.093px;" id="el4gjvz5putti" class="animable"></path><path d="M186.31,325.28v4.47c0,1.41,1,2,2.21,1.28l24.61-14.21a4.86,4.86,0,0,0,2.21-3.82v-4.48c0-1.41-1-2-2.21-1.27l-24.61,14.2A4.9,4.9,0,0,0,186.31,325.28Z" style="fill: rgb(224, 224, 224); transform-origin: 200.825px 319.137px;" id="elmmwv5l5ams" class="animable"></path><path d="M220.87,305.33v4.47c0,1.41,1,2,2.21,1.28l24.6-14.21A4.87,4.87,0,0,0,249.9,293v-4.47c0-1.41-1-2-2.22-1.27l-24.6,14.2A4.9,4.9,0,0,0,220.87,305.33Z" style="fill: rgb(224, 224, 224); transform-origin: 235.385px 299.167px;" id="el0x50l39cvv1" class="animable"></path><path d="M255.42,285.38v4.47c0,1.41,1,2,2.21,1.28l24.61-14.21a4.9,4.9,0,0,0,2.21-3.83v-4.47c0-1.41-1-2-2.21-1.28l-24.61,14.21A4.88,4.88,0,0,0,255.42,285.38Z" style="fill: rgb(224, 224, 224); transform-origin: 269.935px 279.235px;" id="elzay9249dsg" class="animable"></path><path d="M270.68,290.78,265,294a2.94,2.94,0,0,0-1.32,2.3v1.73c0,.84.59,1.18,1.32.76l5.64-3.26a2.91,2.91,0,0,0,1.33-2.29v-1.73C272,290.7,271.42,290.35,270.68,290.78Z" style="fill: #33D761; transform-origin: 267.826px 294.782px;" id="el0nz8ufungxkh" class="animable"></path><path d="M283.12,283.59l-5.64,3.26a2.93,2.93,0,0,0-1.32,2.3v1.72c0,.85.59,1.19,1.32.77l5.64-3.26a2.91,2.91,0,0,0,1.33-2.3v-1.72C284.45,283.51,283.86,283.17,283.12,283.59Z" style="fill: #33D761; transform-origin: 280.305px 287.615px;" id="el9ej4semiswo" class="animable"></path><path d="M211.91,336.68l70.22-40.54c1.22-.71,2.21-.14,2.21,1.27v2.08a4.9,4.9,0,0,1-2.21,3.83l-70.22,40.54c-1.22.71-2.21.13-2.21-1.28v-2.07A4.88,4.88,0,0,1,211.91,336.68Z" style="fill: #33D761; transform-origin: 247.02px 319.999px;" id="el35s7dsiusxb" class="animable"></path></g><g id="freepik--Coins--inject-146" class="animable" style="transform-origin: 254.024px 275.349px;"><path d="M374.28,315.15a18.13,18.13,0,0,0-6.67-6.17c-10.91-6.29-28.59-6.29-39.49,0a18,18,0,0,0-6.67,6.17h-1.51v5.71h0c.2,4,2.91,7.89,8.16,10.92,10.9,6.3,28.58,6.3,39.49,0,5.24-3,7.95-7,8.15-10.92h0v-5.71Z" style="fill: #33D761; transform-origin: 347.84px 320.384px;" id="eltuqbnyyy3eb" class="animable"></path><g id="elm5rcze80xl"><path d="M374.28,315.15a18.13,18.13,0,0,0-6.67-6.17c-10.91-6.29-28.59-6.29-39.49,0a18,18,0,0,0-6.67,6.17h-1.51v5.71h0c.2,4,2.91,7.89,8.16,10.92,10.9,6.3,28.58,6.3,39.49,0,5.24-3,7.95-7,8.15-10.92h0v-5.71Z" style="fill: rgb(245, 245, 245); opacity: 0.5; transform-origin: 347.84px 320.384px;" class="animable" id="eluvhgamjdni"></path></g><path d="M367.61,303.75c-10.91-6.29-28.59-6.29-39.49,0s-10.91,16.51,0,22.8,28.58,6.3,39.49,0S378.51,310.05,367.61,303.75Z" style="fill: #33D761; transform-origin: 347.865px 315.152px;" id="eln2h4bcw0q79" class="animable"></path><g id="elke7n5fayb2m"><path d="M367.61,303.75c-10.91-6.29-28.59-6.29-39.49,0s-10.91,16.51,0,22.8,28.58,6.3,39.49,0S378.51,310.05,367.61,303.75Z" style="fill: rgb(245, 245, 245); opacity: 0.6; transform-origin: 347.865px 315.152px;" class="animable" id="eltzjrkkqkbk"></path></g><path d="M360.72,307.93a31.44,31.44,0,0,0-25.72,0c-3.65,1.87-5.66,4.44-5.66,7.23s2,5.35,5.66,7.22a31.44,31.44,0,0,0,25.72,0c3.65-1.87,5.66-4.44,5.66-7.22S364.37,309.8,360.72,307.93Z" style="fill: #33D761; transform-origin: 347.86px 315.155px;" id="el8ukanv9fljm" class="animable"></path><g id="elmtgk5u24ym"><path d="M360.72,307.93a31.44,31.44,0,0,0-25.72,0c-3.65,1.87-5.66,4.44-5.66,7.23s2,5.35,5.66,7.22a31.44,31.44,0,0,0,25.72,0c3.65-1.87,5.66-4.44,5.66-7.22S364.37,309.8,360.72,307.93Z" style="fill: rgb(245, 245, 245); opacity: 0.6; transform-origin: 347.86px 315.155px;" class="animable" id="el4x9n5wtqjqp"></path></g><path d="M367,304.81c-5.09-2.94-11.89-4.56-19.14-4.56s-14,1.62-19.13,4.56c-4.89,2.82-7.57,6.49-7.57,10.35s2.68,7.52,7.57,10.34c5.09,2.94,11.88,4.56,19.13,4.56s14.05-1.62,19.14-4.56c4.88-2.82,7.57-6.49,7.57-10.34S371.88,307.63,367,304.81Zm-6.28,17.57a31.44,31.44,0,0,1-25.72,0c-3.65-1.87-5.66-4.44-5.66-7.22s2-5.36,5.66-7.23a31.44,31.44,0,0,1,25.72,0c3.65,1.87,5.66,4.44,5.66,7.23S364.37,320.51,360.72,322.38Z" style="fill: #33D761; transform-origin: 347.865px 315.155px;" id="elnc4ao5rql9" class="animable"></path><g id="eln2x2i6lvct"><path d="M367,304.81c-5.09-2.94-11.89-4.56-19.14-4.56s-14,1.62-19.13,4.56c-4.89,2.82-7.57,6.49-7.57,10.35s2.68,7.52,7.57,10.34c5.09,2.94,11.88,4.56,19.13,4.56s14.05-1.62,19.14-4.56c4.88-2.82,7.57-6.49,7.57-10.34S371.88,307.63,367,304.81Zm-6.28,17.57a31.44,31.44,0,0,1-25.72,0c-3.65-1.87-5.66-4.44-5.66-7.22s2-5.36,5.66-7.23a31.44,31.44,0,0,1,25.72,0c3.65,1.87,5.66,4.44,5.66,7.23S364.37,320.51,360.72,322.38Z" style="fill: rgb(245, 245, 245); opacity: 0.7; transform-origin: 347.865px 315.155px;" class="animable" id="el83k5ccxewvw"></path></g><path d="M360.28,321.53c6.86-3.52,6.86-9.23,0-12.75s-18-3.52-24.84,0-6.86,9.23,0,12.75S353.42,325.05,360.28,321.53Z" style="fill: #33D761; transform-origin: 347.864px 315.155px;" id="elvgq9ilp0zlk" class="animable"></path><g id="elslqabo1zxq"><path d="M360.28,321.53c6.86-3.52,6.86-9.23,0-12.75s-18-3.52-24.84,0-6.86,9.23,0,12.75S353.42,325.05,360.28,321.53Z" style="fill: rgb(245, 245, 245); opacity: 0.5; transform-origin: 347.864px 315.155px;" class="animable" id="elwb4dyu80ee"></path></g><path d="M360.28,311.17c-6.86-3.52-18-3.52-24.84,0-2.83,1.45-4.49,3.28-5,5.18.49,1.89,2.15,3.72,5,5.18,6.86,3.52,18,3.52,24.84,0,2.84-1.46,4.49-3.29,5-5.18C364.77,314.45,363.12,312.62,360.28,311.17Z" style="fill: #33D761; transform-origin: 347.86px 316.35px;" id="eli4a96fw1h2q" class="animable"></path><g id="eldsrrks1x907"><path d="M360.28,311.17c-6.86-3.52-18-3.52-24.84,0-2.83,1.45-4.49,3.28-5,5.18.49,1.89,2.15,3.72,5,5.18,6.86,3.52,18,3.52,24.84,0,2.84-1.46,4.49-3.29,5-5.18C364.77,314.45,363.12,312.62,360.28,311.17Z" style="fill: rgb(245, 245, 245); opacity: 0.6; transform-origin: 347.86px 316.35px;" class="animable" id="elle3s4yjdwg"></path></g><polygon points="349.52 308.92 349.52 311.49 348.64 312.42 347.02 314.12 347.02 311.44 349.52 308.92" style="fill: #33D761; transform-origin: 348.27px 311.52px;" id="elvbb3v6duxbn" class="animable"></polygon><path d="M347,311.44v2.68h-5.08V311S346.63,310.26,347,311.44Z" style="fill: #33D761; transform-origin: 344.46px 312.445px;" id="el0s8ttxlfa2i" class="animable"></path><path d="M358.68,318.75V321l-2.82,1.62-2.08-1.2a10.62,10.62,0,0,1-8.07.36v-2.22l1.28-1.27-1.28.35a8.21,8.21,0,0,1-6.28-.72c-1.27-.73-1.85-1.52-1.85-2.34v-2.17l.23-.94L337,312v-2.23l2.08,1.21a3.24,3.24,0,0,0-1.54,2.39v0c0,.8.62,1.58,1.85,2.29,2.74,1.58,5.45,1.06,7.94.26,2.31-.75,4-1.64,5.33-.87.82.48.57,1.06-.36,1.6a4.65,4.65,0,0,1-4,.23l-2.66,2.64a9.37,9.37,0,0,0,1.47.43,11.05,11.05,0,0,0,6.6-.79l2.08,1.2Z" style="fill: #33D761; transform-origin: 347.84px 316.195px;" id="el13sgxp1b00cl" class="animable"></path><polygon points="353.77 319.18 353.77 321.4 355.86 322.6 355.86 320.38 353.77 319.18" style="fill: #33D761; transform-origin: 354.815px 320.89px;" id="el1irrv8n5ng1" class="animable"></polygon><g id="elihslx7eknwo"><g style="opacity: 0.5; transform-origin: 347.84px 315.77px;" class="animable" id="el3mwx1f2aynh"><polygon points="349.52 308.92 349.52 311.49 348.64 312.42 347.02 314.12 347.02 311.44 349.52 308.92" style="fill: rgb(245, 245, 245); transform-origin: 348.27px 311.52px;" id="elehjh4y6wjda" class="animable"></polygon><path d="M347,311.44v2.68h-5.08V311S346.63,310.26,347,311.44Z" style="fill: rgb(245, 245, 245); transform-origin: 344.46px 312.445px;" id="ela0f05qj09hb" class="animable"></path><path d="M358.68,318.75V321l-2.82,1.62-2.08-1.2a10.62,10.62,0,0,1-8.07.36v-2.22l1.28-1.27-1.28.35a8.21,8.21,0,0,1-6.28-.72c-1.27-.73-1.85-1.52-1.85-2.34v-2.17l.23-.94L337,312v-2.23l2.08,1.21a3.24,3.24,0,0,0-1.54,2.39v0c0,.8.62,1.58,1.85,2.29,2.74,1.58,5.45,1.06,7.94.26,2.31-.75,4-1.64,5.33-.87.82.48.57,1.06-.36,1.6a4.65,4.65,0,0,1-4,.23l-2.66,2.64a9.37,9.37,0,0,0,1.47.43,11.05,11.05,0,0,0,6.6-.79l2.08,1.2Z" style="fill: rgb(245, 245, 245); transform-origin: 347.84px 316.195px;" id="elyjdvuxez5hn" class="animable"></path><polygon points="353.77 319.18 353.77 321.4 355.86 322.6 355.86 320.38 353.77 319.18" style="fill: rgb(245, 245, 245); transform-origin: 354.815px 320.89px;" id="elz02dj5uo8lo" class="animable"></polygon></g></g><path d="M358.2,318.48l-1.61-.93a2.74,2.74,0,0,0,1.61-2.47,1.55,1.55,0,0,0,0-.22,3,3,0,0,0-1.8-2.18h0a7.41,7.41,0,0,0-3.75-1h-.35l-.34,0-.29,0h-.12l-.22,0a16.72,16.72,0,0,0-1.82.38l-.86.25-1.17.38L347,313a13.47,13.47,0,0,1-2.5.71,2.52,2.52,0,0,1-1.07,0,2.28,2.28,0,0,1-.51-.21c-.62-.36-.72-.92.46-1.6a4.12,4.12,0,0,1,3.62-.38l2.5-2.52a10.71,10.71,0,0,0-7.55.42l-2.09-1.2L337,309.78l2.09,1.2a3.19,3.19,0,0,0-1.55,2.39v0c0,.8.61,1.58,1.85,2.29,2.74,1.58,5.45,1.06,7.94.26,2.31-.76,4-1.64,5.32-.87.83.48.58,1.06-.35,1.59a4.58,4.58,0,0,1-4,.23l-2.66,2.65a9.37,9.37,0,0,0,1.47.43,11,11,0,0,0,6.59-.79l2.09,1.2,2.81-1.62Z" style="fill: #33D761; transform-origin: 347.8px 314.29px;" id="elew5i6sc87n" class="animable"></path><g id="elvf1r5avj5ll"><path d="M358.2,318.48l-1.61-.93a2.74,2.74,0,0,0,1.61-2.47,1.55,1.55,0,0,0,0-.22,3,3,0,0,0-1.8-2.18h0a7.41,7.41,0,0,0-3.75-1h-.35l-.34,0-.29,0h-.12l-.22,0a16.72,16.72,0,0,0-1.82.38l-.86.25-1.17.38L347,313a13.47,13.47,0,0,1-2.5.71,2.52,2.52,0,0,1-1.07,0,2.28,2.28,0,0,1-.51-.21c-.62-.36-.72-.92.46-1.6a4.12,4.12,0,0,1,3.62-.38l2.5-2.52a10.71,10.71,0,0,0-7.55.42l-2.09-1.2L337,309.78l2.09,1.2a3.19,3.19,0,0,0-1.55,2.39v0c0,.8.61,1.58,1.85,2.29,2.74,1.58,5.45,1.06,7.94.26,2.31-.76,4-1.64,5.32-.87.83.48.58,1.06-.35,1.59a4.58,4.58,0,0,1-4,.23l-2.66,2.65a9.37,9.37,0,0,0,1.47.43,11,11,0,0,0,6.59-.79l2.09,1.2,2.81-1.62Z" style="fill: rgb(245, 245, 245); opacity: 0.7; transform-origin: 347.8px 314.29px;" class="animable" id="elwobz5t6h1r"></path></g><path d="M375.94,307.31a18.13,18.13,0,0,0-6.67-6.17c-10.91-6.29-28.59-6.29-39.49,0a18.13,18.13,0,0,0-6.67,6.17H321.6V313h0c.2,4,2.92,7.89,8.16,10.92,10.9,6.3,28.58,6.3,39.49,0,5.24-3,8-7,8.16-10.92h0v-5.71Z" style="fill: #33D761; transform-origin: 349.505px 312.534px;" id="elysj7wyxc3n" class="animable"></path><g id="elq6vzymbvxwn"><path d="M375.94,307.31a18.13,18.13,0,0,0-6.67-6.17c-10.91-6.29-28.59-6.29-39.49,0a18.13,18.13,0,0,0-6.67,6.17H321.6V313h0c.2,4,2.92,7.89,8.16,10.92,10.9,6.3,28.58,6.3,39.49,0,5.24-3,8-7,8.16-10.92h0v-5.71Z" style="fill: rgb(245, 245, 245); opacity: 0.5; transform-origin: 349.505px 312.534px;" class="animable" id="elw48mbpdkbb9"></path></g><path d="M369.27,295.91c-10.91-6.29-28.59-6.29-39.49,0s-10.9,16.51,0,22.8,28.58,6.3,39.49,0S380.17,302.21,369.27,295.91Z" style="fill: #33D761; transform-origin: 349.527px 307.312px;" id="ele7jys9xaljk" class="animable"></path><g id="elxu45shmpj89"><path d="M369.27,295.91c-10.91-6.29-28.59-6.29-39.49,0s-10.9,16.51,0,22.8,28.58,6.3,39.49,0S380.17,302.21,369.27,295.91Z" style="fill: rgb(245, 245, 245); opacity: 0.6; transform-origin: 349.527px 307.312px;" class="animable" id="el4r01ske5il8"></path></g><path d="M362.38,300.09a31.42,31.42,0,0,0-25.71,0C333,302,331,304.53,331,307.32s2,5.35,5.67,7.22a31.42,31.42,0,0,0,25.71,0c3.65-1.87,5.67-4.44,5.67-7.22S366,302,362.38,300.09Z" style="fill: #33D761; transform-origin: 349.525px 307.315px;" id="elnj230amjgd8" class="animable"></path><g id="el31mfhodqquw"><path d="M362.38,300.09a31.42,31.42,0,0,0-25.71,0C333,302,331,304.53,331,307.32s2,5.35,5.67,7.22a31.42,31.42,0,0,0,25.71,0c3.65-1.87,5.67-4.44,5.67-7.22S366,302,362.38,300.09Z" style="fill: rgb(245, 245, 245); opacity: 0.6; transform-origin: 349.525px 307.315px;" class="animable" id="elehqbk0z9cro"></path></g><path d="M368.66,297c-5.09-2.94-11.89-4.56-19.14-4.56s-14,1.62-19.13,4.56c-4.89,2.82-7.57,6.49-7.57,10.35s2.68,7.52,7.57,10.34c5.09,2.94,11.88,4.56,19.13,4.56s14.05-1.62,19.14-4.56c4.88-2.82,7.57-6.49,7.57-10.34S373.54,299.79,368.66,297Zm-6.28,17.57a31.42,31.42,0,0,1-25.71,0c-3.66-1.87-5.67-4.44-5.67-7.22s2-5.36,5.67-7.23a31.42,31.42,0,0,1,25.71,0c3.65,1.87,5.67,4.44,5.67,7.23S366,312.67,362.38,314.54Z" style="fill: #33D761; transform-origin: 349.525px 307.345px;" id="elwtdqj3ox05" class="animable"></path><g id="elu06qdeu471n"><path d="M368.66,297c-5.09-2.94-11.89-4.56-19.14-4.56s-14,1.62-19.13,4.56c-4.89,2.82-7.57,6.49-7.57,10.35s2.68,7.52,7.57,10.34c5.09,2.94,11.88,4.56,19.13,4.56s14.05-1.62,19.14-4.56c4.88-2.82,7.57-6.49,7.57-10.34S373.54,299.79,368.66,297Zm-6.28,17.57a31.42,31.42,0,0,1-25.71,0c-3.66-1.87-5.67-4.44-5.67-7.22s2-5.36,5.67-7.23a31.42,31.42,0,0,1,25.71,0c3.65,1.87,5.67,4.44,5.67,7.23S366,312.67,362.38,314.54Z" style="fill: rgb(245, 245, 245); opacity: 0.7; transform-origin: 349.525px 307.345px;" class="animable" id="el5kan1xopiet"></path></g><ellipse cx="349.52" cy="307.31" rx="17.56" ry="9.01" style="fill: #33D761; transform-origin: 349.52px 307.31px;" id="el1u838o75b1s" class="animable"></ellipse><g id="elzk6fav53xn"><ellipse cx="349.52" cy="307.31" rx="17.56" ry="9.01" style="fill: rgb(245, 245, 245); opacity: 0.5; transform-origin: 349.52px 307.31px;" class="animable" id="elas1w8jbkpk"></ellipse></g><path d="M361.94,303.33c-6.86-3.52-18-3.52-24.83,0-2.84,1.45-4.5,3.28-5,5.18.49,1.89,2.15,3.72,5,5.18,6.85,3.51,18,3.51,24.83,0,2.84-1.46,4.5-3.29,5-5.18C366.44,306.61,364.78,304.78,361.94,303.33Z" style="fill: #33D761; transform-origin: 349.525px 308.506px;" id="els7j1o7i7b7l" class="animable"></path><g id="eltiey53w4evs"><path d="M361.94,303.33c-6.86-3.52-18-3.52-24.83,0-2.84,1.45-4.5,3.28-5,5.18.49,1.89,2.15,3.72,5,5.18,6.85,3.51,18,3.51,24.83,0,2.84-1.46,4.5-3.29,5-5.18C366.44,306.61,364.78,304.78,361.94,303.33Z" style="fill: rgb(245, 245, 245); opacity: 0.6; transform-origin: 349.525px 308.506px;" class="animable" id="el3m2qfb0y25j"></path></g><polygon points="351.19 301.08 351.19 303.65 350.31 304.58 348.68 306.28 348.68 303.6 351.19 301.08" style="fill: #33D761; transform-origin: 349.935px 303.68px;" id="elf8hcf82mlhe" class="animable"></polygon><path d="M348.68,303.6v2.68H343.6v-3.14S348.3,302.42,348.68,303.6Z" style="fill: #33D761; transform-origin: 346.14px 304.601px;" id="eligs0dgt9q4" class="animable"></path><path d="M360.34,310.91v2.23l-2.82,1.62-2.08-1.2a10.61,10.61,0,0,1-8.07.36V311.7l1.28-1.27-1.28.35a8.21,8.21,0,0,1-6.28-.72c-1.26-.73-1.85-1.52-1.85-2.34v-2.17l.23-.94-.77-.45v-2.23l2.09,1.21a3.23,3.23,0,0,0-1.55,2.39v0c0,.8.62,1.58,1.85,2.29,2.74,1.58,5.45,1.06,7.94.26,2.31-.75,4-1.64,5.33-.87.83.48.57,1.06-.35,1.6a4.65,4.65,0,0,1-4,.23l-2.67,2.64a9.69,9.69,0,0,0,1.47.43,11,11,0,0,0,6.6-.8l2.08,1.21Z" style="fill: #33D761; transform-origin: 349.52px 308.345px;" id="el4p658qsx785" class="animable"></path><polygon points="355.44 311.33 355.44 313.56 357.52 314.76 357.52 312.54 355.44 311.33" style="fill: #33D761; transform-origin: 356.48px 313.045px;" id="elgxsoizws7l" class="animable"></polygon><g id="elwp1lghfcc8"><g style="opacity: 0.5; transform-origin: 349.52px 307.92px;" class="animable" id="elzqjqpumebmi"><polygon points="351.19 301.08 351.19 303.65 350.31 304.58 348.68 306.28 348.68 303.6 351.19 301.08" style="fill: rgb(245, 245, 245); transform-origin: 349.935px 303.68px;" id="elzhn6uqct3tg" class="animable"></polygon><path d="M348.68,303.6v2.68H343.6v-3.14S348.3,302.42,348.68,303.6Z" style="fill: rgb(245, 245, 245); transform-origin: 346.14px 304.601px;" id="elzx45d869fe" class="animable"></path><path d="M360.34,310.91v2.23l-2.82,1.62-2.08-1.2a10.61,10.61,0,0,1-8.07.36V311.7l1.28-1.27-1.28.35a8.21,8.21,0,0,1-6.28-.72c-1.26-.73-1.85-1.52-1.85-2.34v-2.17l.23-.94-.77-.45v-2.23l2.09,1.21a3.23,3.23,0,0,0-1.55,2.39v0c0,.8.62,1.58,1.85,2.29,2.74,1.58,5.45,1.06,7.94.26,2.31-.75,4-1.64,5.33-.87.83.48.57,1.06-.35,1.6a4.65,4.65,0,0,1-4,.23l-2.67,2.64a9.69,9.69,0,0,0,1.47.43,11,11,0,0,0,6.6-.8l2.08,1.21Z" style="fill: rgb(245, 245, 245); transform-origin: 349.52px 308.345px;" id="elpa9l3m1xted" class="animable"></path><polygon points="355.44 311.33 355.44 313.56 357.52 314.76 357.52 312.54 355.44 311.33" style="fill: rgb(245, 245, 245); transform-origin: 356.48px 313.045px;" id="elk6b9tpwe9c" class="animable"></polygon></g></g><path d="M359.87,310.64l-1.61-.93a2.74,2.74,0,0,0,1.61-2.47,1.5,1.5,0,0,0,0-.22c-.07-.77-.63-1.51-1.8-2.18h0a7.4,7.4,0,0,0-3.74-1H354l-.33,0-.3,0h-.12l-.22,0a17.23,17.23,0,0,0-1.82.38l-.85.25-1.18.38-.45.16a13.27,13.27,0,0,1-2.5.71,2.52,2.52,0,0,1-1.07,0,2.21,2.21,0,0,1-.5-.21c-.63-.36-.73-.92.45-1.6a4.12,4.12,0,0,1,3.62-.38l2.51-2.52a10.73,10.73,0,0,0-7.56.42l-2.09-1.2-2.84,1.64,2.09,1.2a3.21,3.21,0,0,0-1.55,2.39v0c0,.8.61,1.58,1.85,2.29,2.74,1.58,5.46,1.06,7.94.26,2.31-.76,4-1.64,5.33-.88.83.49.57,1.07-.35,1.6a4.58,4.58,0,0,1-4,.23l-2.67,2.65a9.69,9.69,0,0,0,1.47.43,11,11,0,0,0,6.6-.8l2.08,1.21,2.82-1.62Z" style="fill: #33D761; transform-origin: 349.555px 306.34px;" id="elzjtcoxvyvx" class="animable"></path><g id="elzfkvbn7bwbh"><path d="M359.87,310.64l-1.61-.93a2.74,2.74,0,0,0,1.61-2.47,1.5,1.5,0,0,0,0-.22c-.07-.77-.63-1.51-1.8-2.18h0a7.4,7.4,0,0,0-3.74-1H354l-.33,0-.3,0h-.12l-.22,0a17.23,17.23,0,0,0-1.82.38l-.85.25-1.18.38-.45.16a13.27,13.27,0,0,1-2.5.71,2.52,2.52,0,0,1-1.07,0,2.21,2.21,0,0,1-.5-.21c-.63-.36-.73-.92.45-1.6a4.12,4.12,0,0,1,3.62-.38l2.51-2.52a10.73,10.73,0,0,0-7.56.42l-2.09-1.2-2.84,1.64,2.09,1.2a3.21,3.21,0,0,0-1.55,2.39v0c0,.8.61,1.58,1.85,2.29,2.74,1.58,5.46,1.06,7.94.26,2.31-.76,4-1.64,5.33-.88.83.49.57,1.07-.35,1.6a4.58,4.58,0,0,1-4,.23l-2.67,2.65a9.69,9.69,0,0,0,1.47.43,11,11,0,0,0,6.6-.8l2.08,1.21,2.82-1.62Z" style="fill: rgb(245, 245, 245); opacity: 0.7; transform-origin: 349.555px 306.34px;" class="animable" id="elyvl2jrz9yss"></path></g><path d="M374.28,315.15a18.13,18.13,0,0,0-6.67-6.17c-10.91-6.29-28.59-6.29-39.49,0a18,18,0,0,0-6.67,6.17h-1.51v5.71h0c.2,4,2.91,7.89,8.16,10.92,10.9,6.3,28.58,6.3,39.49,0,5.24-3,7.95-7,8.15-10.92h0v-5.71Z" style="fill: #33D761; transform-origin: 347.84px 320.384px;" id="el06czjyomdza" class="animable"></path><g id="el1e7l6nbvkgk"><path d="M374.28,315.15a18.13,18.13,0,0,0-6.67-6.17c-10.91-6.29-28.59-6.29-39.49,0a18,18,0,0,0-6.67,6.17h-1.51v5.71h0c.2,4,2.91,7.89,8.16,10.92,10.9,6.3,28.58,6.3,39.49,0,5.24-3,7.95-7,8.15-10.92h0v-5.71Z" style="fill: rgb(245, 245, 245); opacity: 0.5; transform-origin: 347.84px 320.384px;" class="animable" id="el0oy49omkau1a"></path></g><path d="M367.61,303.75c-10.91-6.29-28.59-6.29-39.49,0s-10.91,16.51,0,22.8,28.58,6.3,39.49,0S378.51,310.05,367.61,303.75Z" style="fill: #33D761; transform-origin: 347.865px 315.152px;" id="elzkxy6kucbx" class="animable"></path><g id="elfgazhinxp0i"><path d="M367.61,303.75c-10.91-6.29-28.59-6.29-39.49,0s-10.91,16.51,0,22.8,28.58,6.3,39.49,0S378.51,310.05,367.61,303.75Z" style="fill: rgb(245, 245, 245); opacity: 0.6; transform-origin: 347.865px 315.152px;" class="animable" id="elsrkv69f2dl8"></path></g><path d="M360.72,307.93a31.44,31.44,0,0,0-25.72,0c-3.65,1.87-5.66,4.44-5.66,7.23s2,5.35,5.66,7.22a31.44,31.44,0,0,0,25.72,0c3.65-1.87,5.66-4.44,5.66-7.22S364.37,309.8,360.72,307.93Z" style="fill: #33D761; transform-origin: 347.86px 315.155px;" id="elzl87ajr4z87" class="animable"></path><g id="elgd9hpzqlp45"><path d="M360.72,307.93a31.44,31.44,0,0,0-25.72,0c-3.65,1.87-5.66,4.44-5.66,7.23s2,5.35,5.66,7.22a31.44,31.44,0,0,0,25.72,0c3.65-1.87,5.66-4.44,5.66-7.22S364.37,309.8,360.72,307.93Z" style="fill: rgb(245, 245, 245); opacity: 0.6; transform-origin: 347.86px 315.155px;" class="animable" id="elafs26tebq3j"></path></g><path d="M367,304.81c-5.09-2.94-11.89-4.56-19.14-4.56s-14,1.62-19.13,4.56c-4.89,2.82-7.57,6.49-7.57,10.35s2.68,7.52,7.57,10.34c5.09,2.94,11.88,4.56,19.13,4.56s14.05-1.62,19.14-4.56c4.88-2.82,7.57-6.49,7.57-10.34S371.88,307.63,367,304.81Zm-6.28,17.57a31.44,31.44,0,0,1-25.72,0c-3.65-1.87-5.66-4.44-5.66-7.22s2-5.36,5.66-7.23a31.44,31.44,0,0,1,25.72,0c3.65,1.87,5.66,4.44,5.66,7.23S364.37,320.51,360.72,322.38Z" style="fill: #33D761; transform-origin: 347.865px 315.155px;" id="ellur68hu324s" class="animable"></path><g id="el8bksv7tfmb"><path d="M367,304.81c-5.09-2.94-11.89-4.56-19.14-4.56s-14,1.62-19.13,4.56c-4.89,2.82-7.57,6.49-7.57,10.35s2.68,7.52,7.57,10.34c5.09,2.94,11.88,4.56,19.13,4.56s14.05-1.62,19.14-4.56c4.88-2.82,7.57-6.49,7.57-10.34S371.88,307.63,367,304.81Zm-6.28,17.57a31.44,31.44,0,0,1-25.72,0c-3.65-1.87-5.66-4.44-5.66-7.22s2-5.36,5.66-7.23a31.44,31.44,0,0,1,25.72,0c3.65,1.87,5.66,4.44,5.66,7.23S364.37,320.51,360.72,322.38Z" style="fill: rgb(245, 245, 245); opacity: 0.7; transform-origin: 347.865px 315.155px;" class="animable" id="elo5l2bza6e8o"></path></g><path d="M360.28,321.53c6.86-3.52,6.86-9.23,0-12.75s-18-3.52-24.84,0-6.86,9.23,0,12.75S353.42,325.05,360.28,321.53Z" style="fill: #33D761; transform-origin: 347.864px 315.155px;" id="el3tjge5k76ei" class="animable"></path><g id="elnzw3vt5od8e"><path d="M360.28,321.53c6.86-3.52,6.86-9.23,0-12.75s-18-3.52-24.84,0-6.86,9.23,0,12.75S353.42,325.05,360.28,321.53Z" style="fill: rgb(245, 245, 245); opacity: 0.5; transform-origin: 347.864px 315.155px;" class="animable" id="elb7qlhqf33hi"></path></g><path d="M360.28,311.17c-6.86-3.52-18-3.52-24.84,0-2.83,1.45-4.49,3.28-5,5.18.49,1.89,2.15,3.72,5,5.18,6.86,3.52,18,3.52,24.84,0,2.84-1.46,4.49-3.29,5-5.18C364.77,314.45,363.12,312.62,360.28,311.17Z" style="fill: #33D761; transform-origin: 347.86px 316.35px;" id="eljbryhb700x" class="animable"></path><g id="elzd2c8sy7mpk"><path d="M360.28,311.17c-6.86-3.52-18-3.52-24.84,0-2.83,1.45-4.49,3.28-5,5.18.49,1.89,2.15,3.72,5,5.18,6.86,3.52,18,3.52,24.84,0,2.84-1.46,4.49-3.29,5-5.18C364.77,314.45,363.12,312.62,360.28,311.17Z" style="fill: rgb(245, 245, 245); opacity: 0.6; transform-origin: 347.86px 316.35px;" class="animable" id="elbkdx6pwlo2k"></path></g><polygon points="349.52 308.92 349.52 311.49 348.64 312.42 347.02 314.12 347.02 311.44 349.52 308.92" style="fill: #33D761; transform-origin: 348.27px 311.52px;" id="eltzfdk5motof" class="animable"></polygon><path d="M347,311.44v2.68h-5.08V311S346.63,310.26,347,311.44Z" style="fill: #33D761; transform-origin: 344.46px 312.445px;" id="el2mg43r82u47" class="animable"></path><path d="M358.68,318.75V321l-2.82,1.62-2.08-1.2a10.62,10.62,0,0,1-8.07.36v-2.22l1.28-1.27-1.28.35a8.21,8.21,0,0,1-6.28-.72c-1.27-.73-1.85-1.52-1.85-2.34v-2.17l.23-.94L337,312v-2.23l2.08,1.21a3.24,3.24,0,0,0-1.54,2.39v0c0,.8.62,1.58,1.85,2.29,2.74,1.58,5.45,1.06,7.94.26,2.31-.75,4-1.64,5.33-.87.82.48.57,1.06-.36,1.6a4.65,4.65,0,0,1-4,.23l-2.66,2.64a9.37,9.37,0,0,0,1.47.43,11.05,11.05,0,0,0,6.6-.79l2.08,1.2Z" style="fill: #33D761; transform-origin: 347.84px 316.195px;" id="elk2825hgokso" class="animable"></path><polygon points="353.77 319.18 353.77 321.4 355.86 322.6 355.86 320.38 353.77 319.18" style="fill: #33D761; transform-origin: 354.815px 320.89px;" id="ellyo0c97ul8l" class="animable"></polygon><g id="eljueo702ilji"><g style="opacity: 0.5; transform-origin: 347.84px 315.77px;" class="animable" id="elmgw7hhwdzd"><polygon points="349.52 308.92 349.52 311.49 348.64 312.42 347.02 314.12 347.02 311.44 349.52 308.92" style="fill: rgb(245, 245, 245); transform-origin: 348.27px 311.52px;" id="el4nnehvhdtjb" class="animable"></polygon><path d="M347,311.44v2.68h-5.08V311S346.63,310.26,347,311.44Z" style="fill: rgb(245, 245, 245); transform-origin: 344.46px 312.445px;" id="el6cqp24ebkv4" class="animable"></path><path d="M358.68,318.75V321l-2.82,1.62-2.08-1.2a10.62,10.62,0,0,1-8.07.36v-2.22l1.28-1.27-1.28.35a8.21,8.21,0,0,1-6.28-.72c-1.27-.73-1.85-1.52-1.85-2.34v-2.17l.23-.94L337,312v-2.23l2.08,1.21a3.24,3.24,0,0,0-1.54,2.39v0c0,.8.62,1.58,1.85,2.29,2.74,1.58,5.45,1.06,7.94.26,2.31-.75,4-1.64,5.33-.87.82.48.57,1.06-.36,1.6a4.65,4.65,0,0,1-4,.23l-2.66,2.64a9.37,9.37,0,0,0,1.47.43,11.05,11.05,0,0,0,6.6-.79l2.08,1.2Z" style="fill: rgb(245, 245, 245); transform-origin: 347.84px 316.195px;" id="elr9tlx2f5kzs" class="animable"></path><polygon points="353.77 319.18 353.77 321.4 355.86 322.6 355.86 320.38 353.77 319.18" style="fill: rgb(245, 245, 245); transform-origin: 354.815px 320.89px;" id="el8qh5ue3ti6x" class="animable"></polygon></g></g><path d="M358.2,318.48l-1.61-.93a2.74,2.74,0,0,0,1.61-2.47,1.55,1.55,0,0,0,0-.22,3,3,0,0,0-1.8-2.18h0a7.41,7.41,0,0,0-3.75-1h-.35l-.34,0-.29,0h-.12l-.22,0a16.72,16.72,0,0,0-1.82.38l-.86.25-1.17.38L347,313a13.47,13.47,0,0,1-2.5.71,2.52,2.52,0,0,1-1.07,0,2.28,2.28,0,0,1-.51-.21c-.62-.36-.72-.92.46-1.6a4.12,4.12,0,0,1,3.62-.38l2.5-2.52a10.71,10.71,0,0,0-7.55.42l-2.09-1.2L337,309.78l2.09,1.2a3.19,3.19,0,0,0-1.55,2.39v0c0,.8.61,1.58,1.85,2.29,2.74,1.58,5.45,1.06,7.94.26,2.31-.76,4-1.64,5.32-.87.83.48.58,1.06-.35,1.59a4.58,4.58,0,0,1-4,.23l-2.66,2.65a9.37,9.37,0,0,0,1.47.43,11,11,0,0,0,6.59-.79l2.09,1.2,2.81-1.62Z" style="fill: #33D761; transform-origin: 347.8px 314.29px;" id="elui96s4pztaa" class="animable"></path><g id="elybp7vfvewc"><path d="M358.2,318.48l-1.61-.93a2.74,2.74,0,0,0,1.61-2.47,1.55,1.55,0,0,0,0-.22,3,3,0,0,0-1.8-2.18h0a7.41,7.41,0,0,0-3.75-1h-.35l-.34,0-.29,0h-.12l-.22,0a16.72,16.72,0,0,0-1.82.38l-.86.25-1.17.38L347,313a13.47,13.47,0,0,1-2.5.71,2.52,2.52,0,0,1-1.07,0,2.28,2.28,0,0,1-.51-.21c-.62-.36-.72-.92.46-1.6a4.12,4.12,0,0,1,3.62-.38l2.5-2.52a10.71,10.71,0,0,0-7.55.42l-2.09-1.2L337,309.78l2.09,1.2a3.19,3.19,0,0,0-1.55,2.39v0c0,.8.61,1.58,1.85,2.29,2.74,1.58,5.45,1.06,7.94.26,2.31-.76,4-1.64,5.32-.87.83.48.58,1.06-.35,1.59a4.58,4.58,0,0,1-4,.23l-2.66,2.65a9.37,9.37,0,0,0,1.47.43,11,11,0,0,0,6.59-.79l2.09,1.2,2.81-1.62Z" style="fill: rgb(245, 245, 245); opacity: 0.7; transform-origin: 347.8px 314.29px;" class="animable" id="elgawznsicq04"></path></g><path d="M375.94,307.31a18.13,18.13,0,0,0-6.67-6.17c-10.91-6.29-28.59-6.29-39.49,0a18.13,18.13,0,0,0-6.67,6.17H321.6V313h0c.2,4,2.92,7.89,8.16,10.92,10.9,6.3,28.58,6.3,39.49,0,5.24-3,8-7,8.16-10.92h0v-5.71Z" style="fill: #33D761; transform-origin: 349.505px 312.534px;" id="eljoy5te6z0zk" class="animable"></path><g id="elyujs4fcp2rh"><path d="M375.94,307.31a18.13,18.13,0,0,0-6.67-6.17c-10.91-6.29-28.59-6.29-39.49,0a18.13,18.13,0,0,0-6.67,6.17H321.6V313h0c.2,4,2.92,7.89,8.16,10.92,10.9,6.3,28.58,6.3,39.49,0,5.24-3,8-7,8.16-10.92h0v-5.71Z" style="fill: rgb(245, 245, 245); opacity: 0.5; transform-origin: 349.505px 312.534px;" class="animable" id="el64gm0dw5m6r"></path></g><path d="M369.27,295.91c-10.91-6.29-28.59-6.29-39.49,0s-10.9,16.51,0,22.8,28.58,6.3,39.49,0S380.17,302.21,369.27,295.91Z" style="fill: #33D761; transform-origin: 349.527px 307.312px;" id="elzy3fx3y08dj" class="animable"></path><g id="elaow7v5ehdnp"><path d="M369.27,295.91c-10.91-6.29-28.59-6.29-39.49,0s-10.9,16.51,0,22.8,28.58,6.3,39.49,0S380.17,302.21,369.27,295.91Z" style="fill: rgb(245, 245, 245); opacity: 0.6; transform-origin: 349.527px 307.312px;" class="animable" id="elgyrelc4bo1b"></path></g><path d="M362.38,300.09a31.42,31.42,0,0,0-25.71,0C333,302,331,304.53,331,307.32s2,5.35,5.67,7.22a31.42,31.42,0,0,0,25.71,0c3.65-1.87,5.67-4.44,5.67-7.22S366,302,362.38,300.09Z" style="fill: #33D761; transform-origin: 349.525px 307.315px;" id="el8kbq00jk1do" class="animable"></path><g id="eld0l6l0hbt44"><path d="M362.38,300.09a31.42,31.42,0,0,0-25.71,0C333,302,331,304.53,331,307.32s2,5.35,5.67,7.22a31.42,31.42,0,0,0,25.71,0c3.65-1.87,5.67-4.44,5.67-7.22S366,302,362.38,300.09Z" style="fill: rgb(245, 245, 245); opacity: 0.6; transform-origin: 349.525px 307.315px;" class="animable" id="elzfoyg5u00o"></path></g><path d="M368.66,297c-5.09-2.94-11.89-4.56-19.14-4.56s-14,1.62-19.13,4.56c-4.89,2.82-7.57,6.49-7.57,10.35s2.68,7.52,7.57,10.34c5.09,2.94,11.88,4.56,19.13,4.56s14.05-1.62,19.14-4.56c4.88-2.82,7.57-6.49,7.57-10.34S373.54,299.79,368.66,297Zm-6.28,17.57a31.42,31.42,0,0,1-25.71,0c-3.66-1.87-5.67-4.44-5.67-7.22s2-5.36,5.67-7.23a31.42,31.42,0,0,1,25.71,0c3.65,1.87,5.67,4.44,5.67,7.23S366,312.67,362.38,314.54Z" style="fill: #33D761; transform-origin: 349.525px 307.345px;" id="elidijbyno7i" class="animable"></path><g id="elamnvv7nubae"><path d="M368.66,297c-5.09-2.94-11.89-4.56-19.14-4.56s-14,1.62-19.13,4.56c-4.89,2.82-7.57,6.49-7.57,10.35s2.68,7.52,7.57,10.34c5.09,2.94,11.88,4.56,19.13,4.56s14.05-1.62,19.14-4.56c4.88-2.82,7.57-6.49,7.57-10.34S373.54,299.79,368.66,297Zm-6.28,17.57a31.42,31.42,0,0,1-25.71,0c-3.66-1.87-5.67-4.44-5.67-7.22s2-5.36,5.67-7.23a31.42,31.42,0,0,1,25.71,0c3.65,1.87,5.67,4.44,5.67,7.23S366,312.67,362.38,314.54Z" style="fill: rgb(245, 245, 245); opacity: 0.7; transform-origin: 349.525px 307.345px;" class="animable" id="elcrw4lvpz78r"></path></g><ellipse cx="349.52" cy="307.31" rx="17.56" ry="9.01" style="fill: #33D761; transform-origin: 349.52px 307.31px;" id="elxm7n8c6il5" class="animable"></ellipse><g id="elq3yr73akikn"><ellipse cx="349.52" cy="307.31" rx="17.56" ry="9.01" style="fill: rgb(245, 245, 245); opacity: 0.5; transform-origin: 349.52px 307.31px;" class="animable" id="el2pxqwaxft5d"></ellipse></g><path d="M361.94,303.33c-6.86-3.52-18-3.52-24.83,0-2.84,1.45-4.5,3.28-5,5.18.49,1.89,2.15,3.72,5,5.18,6.85,3.51,18,3.51,24.83,0,2.84-1.46,4.5-3.29,5-5.18C366.44,306.61,364.78,304.78,361.94,303.33Z" style="fill: #33D761; transform-origin: 349.525px 308.506px;" id="el0dg5bnmjjr" class="animable"></path><g id="eldylomxnbbf"><path d="M361.94,303.33c-6.86-3.52-18-3.52-24.83,0-2.84,1.45-4.5,3.28-5,5.18.49,1.89,2.15,3.72,5,5.18,6.85,3.51,18,3.51,24.83,0,2.84-1.46,4.5-3.29,5-5.18C366.44,306.61,364.78,304.78,361.94,303.33Z" style="fill: rgb(245, 245, 245); opacity: 0.6; transform-origin: 349.525px 308.506px;" class="animable" id="el2p3elhdbkfs"></path></g><polygon points="351.19 301.08 351.19 303.65 350.31 304.58 348.68 306.28 348.68 303.6 351.19 301.08" style="fill: #33D761; transform-origin: 349.935px 303.68px;" id="elbpyt8o1kro9" class="animable"></polygon><path d="M348.68,303.6v2.68H343.6v-3.14S348.3,302.42,348.68,303.6Z" style="fill: #33D761; transform-origin: 346.14px 304.601px;" id="elabg61vz048a" class="animable"></path><path d="M360.34,310.91v2.23l-2.82,1.62-2.08-1.2a10.61,10.61,0,0,1-8.07.36V311.7l1.28-1.27-1.28.35a8.21,8.21,0,0,1-6.28-.72c-1.26-.73-1.85-1.52-1.85-2.34v-2.17l.23-.94-.77-.45v-2.23l2.09,1.21a3.23,3.23,0,0,0-1.55,2.39v0c0,.8.62,1.58,1.85,2.29,2.74,1.58,5.45,1.06,7.94.26,2.31-.75,4-1.64,5.33-.87.83.48.57,1.06-.35,1.6a4.65,4.65,0,0,1-4,.23l-2.67,2.64a9.69,9.69,0,0,0,1.47.43,11,11,0,0,0,6.6-.8l2.08,1.21Z" style="fill: #33D761; transform-origin: 349.52px 308.345px;" id="el8w2c9zayhl5" class="animable"></path><polygon points="355.44 311.33 355.44 313.56 357.52 314.76 357.52 312.54 355.44 311.33" style="fill: #33D761; transform-origin: 356.48px 313.045px;" id="el1ku1rw6snkb" class="animable"></polygon><g id="elf4ol1wvqpdf"><g style="opacity: 0.5; transform-origin: 349.52px 307.92px;" class="animable" id="el835g1215rvn"><polygon points="351.19 301.08 351.19 303.65 350.31 304.58 348.68 306.28 348.68 303.6 351.19 301.08" style="fill: rgb(245, 245, 245); transform-origin: 349.935px 303.68px;" id="elfa24uhbh798" class="animable"></polygon><path d="M348.68,303.6v2.68H343.6v-3.14S348.3,302.42,348.68,303.6Z" style="fill: rgb(245, 245, 245); transform-origin: 346.14px 304.601px;" id="ellqjnsjt6nbf" class="animable"></path><path d="M360.34,310.91v2.23l-2.82,1.62-2.08-1.2a10.61,10.61,0,0,1-8.07.36V311.7l1.28-1.27-1.28.35a8.21,8.21,0,0,1-6.28-.72c-1.26-.73-1.85-1.52-1.85-2.34v-2.17l.23-.94-.77-.45v-2.23l2.09,1.21a3.23,3.23,0,0,0-1.55,2.39v0c0,.8.62,1.58,1.85,2.29,2.74,1.58,5.45,1.06,7.94.26,2.31-.75,4-1.64,5.33-.87.83.48.57,1.06-.35,1.6a4.65,4.65,0,0,1-4,.23l-2.67,2.64a9.69,9.69,0,0,0,1.47.43,11,11,0,0,0,6.6-.8l2.08,1.21Z" style="fill: rgb(245, 245, 245); transform-origin: 349.52px 308.345px;" id="elh8sojnn2qn8" class="animable"></path><polygon points="355.44 311.33 355.44 313.56 357.52 314.76 357.52 312.54 355.44 311.33" style="fill: rgb(245, 245, 245); transform-origin: 356.48px 313.045px;" id="elxdkm6lnknbk" class="animable"></polygon></g></g><path d="M359.87,310.64l-1.61-.93a2.74,2.74,0,0,0,1.61-2.47,1.5,1.5,0,0,0,0-.22c-.07-.77-.63-1.51-1.8-2.18h0a7.4,7.4,0,0,0-3.74-1H354l-.33,0-.3,0h-.12l-.22,0a17.23,17.23,0,0,0-1.82.38l-.85.25-1.18.38-.45.16a13.27,13.27,0,0,1-2.5.71,2.52,2.52,0,0,1-1.07,0,2.21,2.21,0,0,1-.5-.21c-.63-.36-.73-.92.45-1.6a4.12,4.12,0,0,1,3.62-.38l2.51-2.52a10.73,10.73,0,0,0-7.56.42l-2.09-1.2-2.84,1.64,2.09,1.2a3.21,3.21,0,0,0-1.55,2.39v0c0,.8.61,1.58,1.85,2.29,2.74,1.58,5.46,1.06,7.94.26,2.31-.76,4-1.64,5.33-.88.83.49.57,1.07-.35,1.6a4.58,4.58,0,0,1-4,.23l-2.67,2.65a9.69,9.69,0,0,0,1.47.43,11,11,0,0,0,6.6-.8l2.08,1.21,2.82-1.62Z" style="fill: #33D761; transform-origin: 349.555px 306.34px;" id="elt4a5dfalpt" class="animable"></path><g id="elxerrhjfzd4i"><path d="M359.87,310.64l-1.61-.93a2.74,2.74,0,0,0,1.61-2.47,1.5,1.5,0,0,0,0-.22c-.07-.77-.63-1.51-1.8-2.18h0a7.4,7.4,0,0,0-3.74-1H354l-.33,0-.3,0h-.12l-.22,0a17.23,17.23,0,0,0-1.82.38l-.85.25-1.18.38-.45.16a13.27,13.27,0,0,1-2.5.71,2.52,2.52,0,0,1-1.07,0,2.21,2.21,0,0,1-.5-.21c-.63-.36-.73-.92.45-1.6a4.12,4.12,0,0,1,3.62-.38l2.51-2.52a10.73,10.73,0,0,0-7.56.42l-2.09-1.2-2.84,1.64,2.09,1.2a3.21,3.21,0,0,0-1.55,2.39v0c0,.8.61,1.58,1.85,2.29,2.74,1.58,5.46,1.06,7.94.26,2.31-.76,4-1.64,5.33-.88.83.49.57,1.07-.35,1.6a4.58,4.58,0,0,1-4,.23l-2.67,2.65a9.69,9.69,0,0,0,1.47.43,11,11,0,0,0,6.6-.8l2.08,1.21,2.82-1.62Z" style="fill: rgb(245, 245, 245); opacity: 0.7; transform-origin: 349.555px 306.34px;" class="animable" id="el3bryxg1tyiz"></path></g><path d="M137.94,230.31a18.13,18.13,0,0,0-6.67-6.17c-10.91-6.29-28.59-6.29-39.49,0a18.13,18.13,0,0,0-6.67,6.17H83.6V236h0c.2,4,2.92,7.89,8.16,10.92,10.9,6.3,28.58,6.3,39.49,0,5.24-3,8-7,8.16-10.92h0v-5.71Z" style="fill: #33D761; transform-origin: 111.505px 235.534px;" id="el2ub6sk5f2dh" class="animable"></path><g id="elvcrls4gxg5"><path d="M137.94,230.31a18.13,18.13,0,0,0-6.67-6.17c-10.91-6.29-28.59-6.29-39.49,0a18.13,18.13,0,0,0-6.67,6.17H83.6V236h0c.2,4,2.92,7.89,8.16,10.92,10.9,6.3,28.58,6.3,39.49,0,5.24-3,8-7,8.16-10.92h0v-5.71Z" style="fill: rgb(245, 245, 245); opacity: 0.5; transform-origin: 111.505px 235.534px;" class="animable" id="elcsmn7epks46"></path></g><path d="M131.27,218.91c-10.91-6.29-28.59-6.29-39.49,0s-10.9,16.51,0,22.8,28.58,6.3,39.49,0S142.17,225.21,131.27,218.91Z" style="fill: #33D761; transform-origin: 111.527px 230.312px;" id="ellrq6gio9hl" class="animable"></path><g id="elz5vhwwgh0h"><path d="M131.27,218.91c-10.91-6.29-28.59-6.29-39.49,0s-10.9,16.51,0,22.8,28.58,6.3,39.49,0S142.17,225.21,131.27,218.91Z" style="fill: rgb(245, 245, 245); opacity: 0.6; transform-origin: 111.527px 230.312px;" class="animable" id="el0b50y0vwuxap"></path></g><path d="M124.38,223.09a28.81,28.81,0,0,0-12.86-2.75,28.79,28.79,0,0,0-12.85,2.75C95,225,93,227.53,93,230.32s2,5.35,5.67,7.22a28.79,28.79,0,0,0,12.85,2.75,28.81,28.81,0,0,0,12.86-2.75c3.65-1.87,5.67-4.44,5.67-7.22S128,225,124.38,223.09Z" style="fill: #33D761; transform-origin: 111.525px 230.315px;" id="els5ezo6ak5v" class="animable"></path><g id="eln6sdr26rcr"><path d="M124.38,223.09a28.81,28.81,0,0,0-12.86-2.75,28.79,28.79,0,0,0-12.85,2.75C95,225,93,227.53,93,230.32s2,5.35,5.67,7.22a28.79,28.79,0,0,0,12.85,2.75,28.81,28.81,0,0,0,12.86-2.75c3.65-1.87,5.67-4.44,5.67-7.22S128,225,124.38,223.09Z" style="fill: rgb(245, 245, 245); opacity: 0.6; transform-origin: 111.525px 230.315px;" class="animable" id="el0f5k0shrnsw"></path></g><path d="M130.66,220c-5.09-2.94-11.89-4.56-19.14-4.56S97.48,217,92.39,220c-4.89,2.82-7.57,6.49-7.57,10.35s2.68,7.52,7.57,10.34c5.09,2.94,11.88,4.56,19.13,4.56s14-1.62,19.14-4.56c4.88-2.82,7.57-6.49,7.57-10.34S135.54,222.79,130.66,220Zm-6.28,17.57a28.81,28.81,0,0,1-12.86,2.75,28.79,28.79,0,0,1-12.85-2.75C95,235.67,93,233.1,93,230.32s2-5.36,5.67-7.23a28.79,28.79,0,0,1,12.85-2.75,28.81,28.81,0,0,1,12.86,2.75c3.65,1.87,5.67,4.44,5.67,7.23S128,235.67,124.38,237.54Z" style="fill: #33D761; transform-origin: 111.525px 230.345px;" id="elvwu0e6d3dbs" class="animable"></path><g id="elfgkidz217qh"><path d="M130.66,220c-5.09-2.94-11.89-4.56-19.14-4.56S97.48,217,92.39,220c-4.89,2.82-7.57,6.49-7.57,10.35s2.68,7.52,7.57,10.34c5.09,2.94,11.88,4.56,19.13,4.56s14-1.62,19.14-4.56c4.88-2.82,7.57-6.49,7.57-10.34S135.54,222.79,130.66,220Zm-6.28,17.57a28.81,28.81,0,0,1-12.86,2.75,28.79,28.79,0,0,1-12.85-2.75C95,235.67,93,233.1,93,230.32s2-5.36,5.67-7.23a28.79,28.79,0,0,1,12.85-2.75,28.81,28.81,0,0,1,12.86,2.75c3.65,1.87,5.67,4.44,5.67,7.23S128,235.67,124.38,237.54Z" style="fill: rgb(245, 245, 245); opacity: 0.7; transform-origin: 111.525px 230.345px;" class="animable" id="elkwan61hcgy"></path></g><ellipse cx="111.52" cy="230.31" rx="17.56" ry="9.01" style="fill: #33D761; transform-origin: 111.52px 230.31px;" id="el5zgagna50fk" class="animable"></ellipse><g id="elx097ud0x9t"><ellipse cx="111.52" cy="230.31" rx="17.56" ry="9.01" style="fill: rgb(245, 245, 245); opacity: 0.5; transform-origin: 111.52px 230.31px;" class="animable" id="elhpfdxgzoj7f"></ellipse></g><path d="M123.94,226.33c-6.86-3.52-18-3.52-24.83,0-2.84,1.45-4.5,3.28-5,5.18.49,1.89,2.15,3.72,5,5.18,6.85,3.51,18,3.51,24.83,0,2.84-1.46,4.5-3.29,5-5.18C128.44,229.61,126.78,227.78,123.94,226.33Z" style="fill: #33D761; transform-origin: 111.525px 231.506px;" id="elxidbmdpdlc" class="animable"></path><g id="elkcx9ngq0kx"><path d="M123.94,226.33c-6.86-3.52-18-3.52-24.83,0-2.84,1.45-4.5,3.28-5,5.18.49,1.89,2.15,3.72,5,5.18,6.85,3.51,18,3.51,24.83,0,2.84-1.46,4.5-3.29,5-5.18C128.44,229.61,126.78,227.78,123.94,226.33Z" style="fill: rgb(245, 245, 245); opacity: 0.6; transform-origin: 111.525px 231.506px;" class="animable" id="el6pfmgs80jdh"></path></g><polygon points="113.19 224.08 113.19 226.65 112.31 227.58 110.68 229.28 110.68 226.6 113.19 224.08" style="fill: #33D761; transform-origin: 111.935px 226.68px;" id="elb8qj95n0ck" class="animable"></polygon><path d="M110.68,226.6v2.68H105.6v-3.14S110.3,225.42,110.68,226.6Z" style="fill: #33D761; transform-origin: 108.14px 227.601px;" id="elkj897nsykep" class="animable"></path><path d="M122.34,233.91v2.23l-2.82,1.62-2.08-1.2a10.61,10.61,0,0,1-8.07.36V234.7l1.28-1.27-1.28.35a8.21,8.21,0,0,1-6.28-.72c-1.26-.73-1.85-1.52-1.85-2.34v-2.17l.23-.94-.77-.45v-2.23l2.09,1.21a3.23,3.23,0,0,0-1.55,2.39v0c0,.8.62,1.58,1.85,2.29,2.74,1.58,5.45,1.06,7.94.26,2.31-.75,4-1.64,5.33-.87.83.48.58,1.06-.35,1.6a4.65,4.65,0,0,1-4,.23l-2.67,2.64a9.69,9.69,0,0,0,1.47.43,11,11,0,0,0,6.6-.8l2.08,1.21Z" style="fill: #33D761; transform-origin: 111.52px 231.345px;" id="elajvnebyy9c" class="animable"></path><polygon points="117.44 234.34 117.44 236.56 119.52 237.76 119.52 235.54 117.44 234.34" style="fill: #33D761; transform-origin: 118.48px 236.05px;" id="elkikdftxofds" class="animable"></polygon><g id="elybbf4uv3xak"><g style="opacity: 0.5; transform-origin: 111.52px 230.92px;" class="animable" id="elwbq3e5cva5"><polygon points="113.19 224.08 113.19 226.65 112.31 227.58 110.68 229.28 110.68 226.6 113.19 224.08" style="fill: rgb(245, 245, 245); transform-origin: 111.935px 226.68px;" id="elpg5tkt1yx3p" class="animable"></polygon><path d="M110.68,226.6v2.68H105.6v-3.14S110.3,225.42,110.68,226.6Z" style="fill: rgb(245, 245, 245); transform-origin: 108.14px 227.601px;" id="el28k6msre0dj" class="animable"></path><path d="M122.34,233.91v2.23l-2.82,1.62-2.08-1.2a10.61,10.61,0,0,1-8.07.36V234.7l1.28-1.27-1.28.35a8.21,8.21,0,0,1-6.28-.72c-1.26-.73-1.85-1.52-1.85-2.34v-2.17l.23-.94-.77-.45v-2.23l2.09,1.21a3.23,3.23,0,0,0-1.55,2.39v0c0,.8.62,1.58,1.85,2.29,2.74,1.58,5.45,1.06,7.94.26,2.31-.75,4-1.64,5.33-.87.83.48.58,1.06-.35,1.6a4.65,4.65,0,0,1-4,.23l-2.67,2.64a9.69,9.69,0,0,0,1.47.43,11,11,0,0,0,6.6-.8l2.08,1.21Z" style="fill: rgb(245, 245, 245); transform-origin: 111.52px 231.345px;" id="eli6lkahtg99" class="animable"></path><polygon points="117.44 234.34 117.44 236.56 119.52 237.76 119.52 235.54 117.44 234.34" style="fill: rgb(245, 245, 245); transform-origin: 118.48px 236.05px;" id="elk6u3u6b0bcd" class="animable"></polygon></g></g><path d="M121.87,233.64l-1.61-.93a2.74,2.74,0,0,0,1.61-2.47,1.5,1.5,0,0,0,0-.22c-.07-.77-.63-1.51-1.8-2.18h0a7.4,7.4,0,0,0-3.74-1H116l-.33,0-.3,0h-.12l-.22,0a17.23,17.23,0,0,0-1.82.38l-.85.25-1.18.38-.45.16a13.27,13.27,0,0,1-2.5.71,2.52,2.52,0,0,1-1.07,0,2.21,2.21,0,0,1-.5-.21c-.63-.36-.73-.92.45-1.6a4.12,4.12,0,0,1,3.62-.38l2.51-2.52a10.73,10.73,0,0,0-7.56.42l-2.09-1.2-2.84,1.64,2.09,1.2a3.21,3.21,0,0,0-1.55,2.39v0c0,.8.61,1.58,1.85,2.29,2.74,1.58,5.46,1.06,7.94.26,2.31-.76,4-1.64,5.33-.88.83.49.57,1.07-.35,1.6a4.58,4.58,0,0,1-4,.23l-2.67,2.65a9.69,9.69,0,0,0,1.47.43,11.05,11.05,0,0,0,6.6-.79l2.08,1.2,2.82-1.62Z" style="fill: #33D761; transform-origin: 111.555px 229.34px;" id="el5lg1agn19ab" class="animable"></path><g id="eloxqrod76fh"><path d="M121.87,233.64l-1.61-.93a2.74,2.74,0,0,0,1.61-2.47,1.5,1.5,0,0,0,0-.22c-.07-.77-.63-1.51-1.8-2.18h0a7.4,7.4,0,0,0-3.74-1H116l-.33,0-.3,0h-.12l-.22,0a17.23,17.23,0,0,0-1.82.38l-.85.25-1.18.38-.45.16a13.27,13.27,0,0,1-2.5.71,2.52,2.52,0,0,1-1.07,0,2.21,2.21,0,0,1-.5-.21c-.63-.36-.73-.92.45-1.6a4.12,4.12,0,0,1,3.62-.38l2.51-2.52a10.73,10.73,0,0,0-7.56.42l-2.09-1.2-2.84,1.64,2.09,1.2a3.21,3.21,0,0,0-1.55,2.39v0c0,.8.61,1.58,1.85,2.29,2.74,1.58,5.46,1.06,7.94.26,2.31-.76,4-1.64,5.33-.88.83.49.57,1.07-.35,1.6a4.58,4.58,0,0,1-4,.23l-2.67,2.65a9.69,9.69,0,0,0,1.47.43,11.05,11.05,0,0,0,6.6-.79l2.08,1.2,2.82-1.62Z" style="fill: rgb(245, 245, 245); opacity: 0.7; transform-origin: 111.555px 229.34px;" class="animable" id="elod5s91o03zq"></path></g><path d="M420.94,258.31a18.13,18.13,0,0,0-6.67-6.17c-10.91-6.29-28.59-6.29-39.49,0a18.13,18.13,0,0,0-6.67,6.17H366.6V264h0c.2,4,2.92,7.89,8.16,10.92,10.9,6.3,28.58,6.3,39.49,0,5.24-3,8-7,8.16-10.92h0v-5.71Z" style="fill: #33D761; transform-origin: 394.505px 263.534px;" id="eltf9lte0sbad" class="animable"></path><g id="el1tjuawhad3di"><path d="M420.94,258.31a18.13,18.13,0,0,0-6.67-6.17c-10.91-6.29-28.59-6.29-39.49,0a18.13,18.13,0,0,0-6.67,6.17H366.6V264h0c.2,4,2.92,7.89,8.16,10.92,10.9,6.3,28.58,6.3,39.49,0,5.24-3,8-7,8.16-10.92h0v-5.71Z" style="fill: rgb(245, 245, 245); opacity: 0.5; transform-origin: 394.505px 263.534px;" class="animable" id="el27twjoa9asb"></path></g><path d="M414.27,246.91c-10.91-6.29-28.59-6.29-39.49,0s-10.9,16.51,0,22.8,28.58,6.3,39.49,0S425.17,253.21,414.27,246.91Z" style="fill: #33D761; transform-origin: 394.527px 258.312px;" id="elow0y15weex" class="animable"></path><g id="el5b2vts6ndi2"><path d="M414.27,246.91c-10.91-6.29-28.59-6.29-39.49,0s-10.9,16.51,0,22.8,28.58,6.3,39.49,0S425.17,253.21,414.27,246.91Z" style="fill: rgb(245, 245, 245); opacity: 0.6; transform-origin: 394.527px 258.312px;" class="animable" id="ellaji48waede"></path></g><path d="M407.38,251.09a31.42,31.42,0,0,0-25.71,0C378,253,376,255.53,376,258.32s2,5.35,5.67,7.22a31.42,31.42,0,0,0,25.71,0c3.65-1.87,5.67-4.44,5.67-7.22S411,253,407.38,251.09Z" style="fill: #33D761; transform-origin: 394.525px 258.315px;" id="eluzo7gtht26a" class="animable"></path><g id="elg6nqljb1m2"><path d="M407.38,251.09a31.42,31.42,0,0,0-25.71,0C378,253,376,255.53,376,258.32s2,5.35,5.67,7.22a31.42,31.42,0,0,0,25.71,0c3.65-1.87,5.67-4.44,5.67-7.22S411,253,407.38,251.09Z" style="fill: rgb(245, 245, 245); opacity: 0.6; transform-origin: 394.525px 258.315px;" class="animable" id="elqivvt813k5g"></path></g><path d="M413.66,248c-5.09-2.94-11.89-4.56-19.14-4.56s-14,1.62-19.13,4.56c-4.89,2.82-7.57,6.49-7.57,10.35s2.68,7.52,7.57,10.34c5.09,2.94,11.88,4.56,19.13,4.56s14.05-1.62,19.14-4.56c4.88-2.82,7.57-6.49,7.57-10.34S418.54,250.79,413.66,248Zm-6.28,17.57a31.42,31.42,0,0,1-25.71,0c-3.66-1.87-5.67-4.44-5.67-7.22s2-5.36,5.67-7.23a31.42,31.42,0,0,1,25.71,0c3.65,1.87,5.67,4.44,5.67,7.23S411,263.67,407.38,265.54Z" style="fill: #33D761; transform-origin: 394.525px 258.345px;" id="elpvs08345l8n" class="animable"></path><g id="eldz5d75sehbv"><path d="M413.66,248c-5.09-2.94-11.89-4.56-19.14-4.56s-14,1.62-19.13,4.56c-4.89,2.82-7.57,6.49-7.57,10.35s2.68,7.52,7.57,10.34c5.09,2.94,11.88,4.56,19.13,4.56s14.05-1.62,19.14-4.56c4.88-2.82,7.57-6.49,7.57-10.34S418.54,250.79,413.66,248Zm-6.28,17.57a31.42,31.42,0,0,1-25.71,0c-3.66-1.87-5.67-4.44-5.67-7.22s2-5.36,5.67-7.23a31.42,31.42,0,0,1,25.71,0c3.65,1.87,5.67,4.44,5.67,7.23S411,263.67,407.38,265.54Z" style="fill: rgb(245, 245, 245); opacity: 0.7; transform-origin: 394.525px 258.345px;" class="animable" id="eltoq2kue99f"></path></g><ellipse cx="394.52" cy="258.31" rx="17.56" ry="9.01" style="fill: #33D761; transform-origin: 394.52px 258.31px;" id="elak8nir8806t" class="animable"></ellipse><g id="elmdcrr45m7ot"><ellipse cx="394.52" cy="258.31" rx="17.56" ry="9.01" style="fill: rgb(245, 245, 245); opacity: 0.5; transform-origin: 394.52px 258.31px;" class="animable" id="elx95x15uddxs"></ellipse></g><path d="M406.94,254.33c-6.86-3.52-18-3.52-24.83,0-2.84,1.45-4.5,3.28-5,5.18.49,1.89,2.15,3.72,5,5.18,6.85,3.51,18,3.51,24.83,0,2.84-1.46,4.5-3.29,5-5.18C411.44,257.61,409.78,255.78,406.94,254.33Z" style="fill: #33D761; transform-origin: 394.525px 259.506px;" id="elrjdpy5dcfnh" class="animable"></path><g id="elb46n6cuzpbk"><path d="M406.94,254.33c-6.86-3.52-18-3.52-24.83,0-2.84,1.45-4.5,3.28-5,5.18.49,1.89,2.15,3.72,5,5.18,6.85,3.51,18,3.51,24.83,0,2.84-1.46,4.5-3.29,5-5.18C411.44,257.61,409.78,255.78,406.94,254.33Z" style="fill: rgb(245, 245, 245); opacity: 0.6; transform-origin: 394.525px 259.506px;" class="animable" id="elvxa2pgj401b"></path></g><polygon points="396.19 252.08 396.19 254.65 395.31 255.58 393.68 257.28 393.68 254.6 396.19 252.08" style="fill: #33D761; transform-origin: 394.935px 254.68px;" id="el2gm8ghd7ism" class="animable"></polygon><path d="M393.68,254.6v2.68H388.6v-3.14S393.3,253.42,393.68,254.6Z" style="fill: #33D761; transform-origin: 391.14px 255.601px;" id="elvk3otlu8acf" class="animable"></path><path d="M405.34,261.91v2.23l-2.82,1.62-2.08-1.2a10.61,10.61,0,0,1-8.07.36V262.7l1.28-1.27-1.28.35a8.21,8.21,0,0,1-6.28-.72c-1.26-.73-1.85-1.52-1.85-2.34v-2.17l.23-.94-.77-.45v-2.23l2.09,1.21a3.23,3.23,0,0,0-1.55,2.39v0c0,.8.62,1.58,1.85,2.29,2.74,1.58,5.45,1.06,7.94.26,2.31-.75,4-1.64,5.33-.87.83.48.57,1.06-.35,1.6a4.65,4.65,0,0,1-4,.23l-2.67,2.64a9.69,9.69,0,0,0,1.47.43,11,11,0,0,0,6.6-.8l2.08,1.21Z" style="fill: #33D761; transform-origin: 394.52px 259.345px;" id="else8p2zz0af" class="animable"></path><polygon points="400.44 262.33 400.44 264.56 402.52 265.76 402.52 263.54 400.44 262.33" style="fill: #33D761; transform-origin: 401.48px 264.045px;" id="elee08g3kp1b" class="animable"></polygon><g id="elv1xlekoy6sr"><g style="opacity: 0.5; transform-origin: 394.52px 258.92px;" class="animable" id="elzbg4i34yvjq"><polygon points="396.19 252.08 396.19 254.65 395.31 255.58 393.68 257.28 393.68 254.6 396.19 252.08" style="fill: rgb(245, 245, 245); transform-origin: 394.935px 254.68px;" id="el7xlgd6c1hs" class="animable"></polygon><path d="M393.68,254.6v2.68H388.6v-3.14S393.3,253.42,393.68,254.6Z" style="fill: rgb(245, 245, 245); transform-origin: 391.14px 255.601px;" id="el1tnqcv77pbq" class="animable"></path><path d="M405.34,261.91v2.23l-2.82,1.62-2.08-1.2a10.61,10.61,0,0,1-8.07.36V262.7l1.28-1.27-1.28.35a8.21,8.21,0,0,1-6.28-.72c-1.26-.73-1.85-1.52-1.85-2.34v-2.17l.23-.94-.77-.45v-2.23l2.09,1.21a3.23,3.23,0,0,0-1.55,2.39v0c0,.8.62,1.58,1.85,2.29,2.74,1.58,5.45,1.06,7.94.26,2.31-.75,4-1.64,5.33-.87.83.48.57,1.06-.35,1.6a4.65,4.65,0,0,1-4,.23l-2.67,2.64a9.69,9.69,0,0,0,1.47.43,11,11,0,0,0,6.6-.8l2.08,1.21Z" style="fill: rgb(245, 245, 245); transform-origin: 394.52px 259.345px;" id="ele1otnd7n7ja" class="animable"></path><polygon points="400.44 262.33 400.44 264.56 402.52 265.76 402.52 263.54 400.44 262.33" style="fill: rgb(245, 245, 245); transform-origin: 401.48px 264.045px;" id="eltewfrvjgv2f" class="animable"></polygon></g></g><path d="M404.87,261.64l-1.61-.93a2.74,2.74,0,0,0,1.61-2.47,1.5,1.5,0,0,0,0-.22c-.07-.77-.63-1.51-1.8-2.18h0a7.4,7.4,0,0,0-3.74-1H399l-.33,0-.3,0h-.12l-.22,0a17.23,17.23,0,0,0-1.82.38l-.85.25-1.18.38-.45.16a13.27,13.27,0,0,1-2.5.71,2.52,2.52,0,0,1-1.07,0,2.21,2.21,0,0,1-.5-.21c-.63-.36-.73-.92.45-1.6a4.12,4.12,0,0,1,3.62-.38l2.51-2.52a10.73,10.73,0,0,0-7.56.42l-2.09-1.2-2.84,1.64,2.09,1.2a3.21,3.21,0,0,0-1.55,2.39v0c0,.8.61,1.58,1.85,2.29,2.74,1.58,5.46,1.06,7.94.26,2.31-.76,4-1.64,5.33-.88.83.49.57,1.07-.35,1.6a4.58,4.58,0,0,1-4,.23l-2.67,2.65a9.69,9.69,0,0,0,1.47.43,11,11,0,0,0,6.6-.8l2.08,1.21,2.82-1.62Z" style="fill: #33D761; transform-origin: 394.555px 257.34px;" id="el3axhkmt4q09" class="animable"></path><g id="elo3k9854wccn"><path d="M404.87,261.64l-1.61-.93a2.74,2.74,0,0,0,1.61-2.47,1.5,1.5,0,0,0,0-.22c-.07-.77-.63-1.51-1.8-2.18h0a7.4,7.4,0,0,0-3.74-1H399l-.33,0-.3,0h-.12l-.22,0a17.23,17.23,0,0,0-1.82.38l-.85.25-1.18.38-.45.16a13.27,13.27,0,0,1-2.5.71,2.52,2.52,0,0,1-1.07,0,2.21,2.21,0,0,1-.5-.21c-.63-.36-.73-.92.45-1.6a4.12,4.12,0,0,1,3.62-.38l2.51-2.52a10.73,10.73,0,0,0-7.56.42l-2.09-1.2-2.84,1.64,2.09,1.2a3.21,3.21,0,0,0-1.55,2.39v0c0,.8.61,1.58,1.85,2.29,2.74,1.58,5.46,1.06,7.94.26,2.31-.76,4-1.64,5.33-.88.83.49.57,1.07-.35,1.6a4.58,4.58,0,0,1-4,.23l-2.67,2.65a9.69,9.69,0,0,0,1.47.43,11,11,0,0,0,6.6-.8l2.08,1.21,2.82-1.62Z" style="fill: rgb(245, 245, 245); opacity: 0.7; transform-origin: 394.555px 257.34px;" class="animable" id="elwqxbuvgt74a"></path></g><path d="M422.94,250.31a18.13,18.13,0,0,0-6.67-6.17c-10.91-6.29-28.59-6.29-39.49,0a18.13,18.13,0,0,0-6.67,6.17H368.6V256h0c.2,4,2.92,7.89,8.16,10.92,10.9,6.3,28.58,6.3,39.49,0,5.24-3,8-7,8.16-10.92h0v-5.71Z" style="fill: #33D761; transform-origin: 396.505px 255.534px;" id="el8gd0zszmlug" class="animable"></path><g id="elmsmh66ejw4"><path d="M422.94,250.31a18.13,18.13,0,0,0-6.67-6.17c-10.91-6.29-28.59-6.29-39.49,0a18.13,18.13,0,0,0-6.67,6.17H368.6V256h0c.2,4,2.92,7.89,8.16,10.92,10.9,6.3,28.58,6.3,39.49,0,5.24-3,8-7,8.16-10.92h0v-5.71Z" style="fill: rgb(245, 245, 245); opacity: 0.5; transform-origin: 396.505px 255.534px;" class="animable" id="elh4yf3sbeo38"></path></g><path d="M416.27,238.91c-10.91-6.29-28.59-6.29-39.49,0s-10.9,16.51,0,22.8,28.58,6.3,39.49,0S427.17,245.21,416.27,238.91Z" style="fill: #33D761; transform-origin: 396.527px 250.312px;" id="eltwt1uvli5fj" class="animable"></path><g id="elr60wy8gn44r"><path d="M416.27,238.91c-10.91-6.29-28.59-6.29-39.49,0s-10.9,16.51,0,22.8,28.58,6.3,39.49,0S427.17,245.21,416.27,238.91Z" style="fill: rgb(245, 245, 245); opacity: 0.6; transform-origin: 396.527px 250.312px;" class="animable" id="elnw09jhxsqsf"></path></g><path d="M409.38,243.09a31.42,31.42,0,0,0-25.71,0C380,245,378,247.53,378,250.32s2,5.35,5.67,7.22a31.42,31.42,0,0,0,25.71,0c3.65-1.87,5.67-4.44,5.67-7.22S413,245,409.38,243.09Z" style="fill: #33D761; transform-origin: 396.525px 250.315px;" id="elvmef0v3t9o" class="animable"></path><g id="el12h2vaiqa19m"><path d="M409.38,243.09a31.42,31.42,0,0,0-25.71,0C380,245,378,247.53,378,250.32s2,5.35,5.67,7.22a31.42,31.42,0,0,0,25.71,0c3.65-1.87,5.67-4.44,5.67-7.22S413,245,409.38,243.09Z" style="fill: rgb(245, 245, 245); opacity: 0.6; transform-origin: 396.525px 250.315px;" class="animable" id="elnt8m592y7i"></path></g><path d="M415.66,240c-5.09-2.94-11.89-4.56-19.14-4.56s-14,1.62-19.13,4.56c-4.89,2.82-7.57,6.49-7.57,10.35s2.68,7.52,7.57,10.34c5.09,2.94,11.88,4.56,19.13,4.56s14.05-1.62,19.14-4.56c4.88-2.82,7.57-6.49,7.57-10.34S420.54,242.79,415.66,240Zm-6.28,17.57a31.42,31.42,0,0,1-25.71,0c-3.66-1.87-5.67-4.44-5.67-7.22s2-5.36,5.67-7.23a31.42,31.42,0,0,1,25.71,0c3.65,1.87,5.67,4.44,5.67,7.23S413,255.67,409.38,257.54Z" style="fill: #33D761; transform-origin: 396.525px 250.345px;" id="el72czz1sm7w8" class="animable"></path><g id="el9q68cgae4j"><path d="M415.66,240c-5.09-2.94-11.89-4.56-19.14-4.56s-14,1.62-19.13,4.56c-4.89,2.82-7.57,6.49-7.57,10.35s2.68,7.52,7.57,10.34c5.09,2.94,11.88,4.56,19.13,4.56s14.05-1.62,19.14-4.56c4.88-2.82,7.57-6.49,7.57-10.34S420.54,242.79,415.66,240Zm-6.28,17.57a31.42,31.42,0,0,1-25.71,0c-3.66-1.87-5.67-4.44-5.67-7.22s2-5.36,5.67-7.23a31.42,31.42,0,0,1,25.71,0c3.65,1.87,5.67,4.44,5.67,7.23S413,255.67,409.38,257.54Z" style="fill: rgb(245, 245, 245); opacity: 0.7; transform-origin: 396.525px 250.345px;" class="animable" id="eldwkps5ox2t"></path></g><ellipse cx="396.52" cy="250.31" rx="17.56" ry="9.01" style="fill: #33D761; transform-origin: 396.52px 250.31px;" id="elfemxckkt6o" class="animable"></ellipse><g id="elecgfkwcctbc"><ellipse cx="396.52" cy="250.31" rx="17.56" ry="9.01" style="fill: rgb(245, 245, 245); opacity: 0.5; transform-origin: 396.52px 250.31px;" class="animable" id="elc2jr4686f7o"></ellipse></g><path d="M408.94,246.33c-6.86-3.52-18-3.52-24.83,0-2.84,1.45-4.5,3.28-5,5.18.49,1.89,2.15,3.72,5,5.18,6.85,3.51,18,3.51,24.83,0,2.84-1.46,4.5-3.29,5-5.18C413.44,249.61,411.78,247.78,408.94,246.33Z" style="fill: #33D761; transform-origin: 396.525px 251.506px;" id="elpzw5k80ihon" class="animable"></path><g id="elvzjbvrmwktm"><path d="M408.94,246.33c-6.86-3.52-18-3.52-24.83,0-2.84,1.45-4.5,3.28-5,5.18.49,1.89,2.15,3.72,5,5.18,6.85,3.51,18,3.51,24.83,0,2.84-1.46,4.5-3.29,5-5.18C413.44,249.61,411.78,247.78,408.94,246.33Z" style="fill: rgb(245, 245, 245); opacity: 0.6; transform-origin: 396.525px 251.506px;" class="animable" id="eltf2v2dy3agg"></path></g><polygon points="398.19 244.08 398.19 246.65 397.31 247.58 395.68 249.28 395.68 246.6 398.19 244.08" style="fill: #33D761; transform-origin: 396.935px 246.68px;" id="elis9xazas2uh" class="animable"></polygon><path d="M395.68,246.6v2.68H390.6v-3.14S395.3,245.42,395.68,246.6Z" style="fill: #33D761; transform-origin: 393.14px 247.601px;" id="elf68hgi34ej" class="animable"></path><path d="M407.34,253.91v2.23l-2.82,1.62-2.08-1.2a10.61,10.61,0,0,1-8.07.36V254.7l1.28-1.27-1.28.35a8.21,8.21,0,0,1-6.28-.72c-1.26-.73-1.85-1.52-1.85-2.34v-2.17l.23-.94-.77-.45v-2.23l2.09,1.21a3.23,3.23,0,0,0-1.55,2.39v0c0,.8.62,1.58,1.85,2.29,2.74,1.58,5.45,1.06,7.94.26,2.31-.75,4-1.64,5.33-.87.83.48.57,1.06-.35,1.6a4.65,4.65,0,0,1-4,.23l-2.67,2.64a9.69,9.69,0,0,0,1.47.43,11,11,0,0,0,6.6-.8l2.08,1.21Z" style="fill: #33D761; transform-origin: 396.52px 251.345px;" id="el84fmmllugbu" class="animable"></path><polygon points="402.44 254.34 402.44 256.56 404.52 257.76 404.52 255.54 402.44 254.34" style="fill: #33D761; transform-origin: 403.48px 256.05px;" id="eloepl8iarr8i" class="animable"></polygon><g id="el07ipiaq73b9s"><g style="opacity: 0.5; transform-origin: 396.52px 250.92px;" class="animable" id="elhfcy11151sm"><polygon points="398.19 244.08 398.19 246.65 397.31 247.58 395.68 249.28 395.68 246.6 398.19 244.08" style="fill: rgb(245, 245, 245); transform-origin: 396.935px 246.68px;" id="elqgers0qkld9" class="animable"></polygon><path d="M395.68,246.6v2.68H390.6v-3.14S395.3,245.42,395.68,246.6Z" style="fill: rgb(245, 245, 245); transform-origin: 393.14px 247.601px;" id="eljblymtdhyr" class="animable"></path><path d="M407.34,253.91v2.23l-2.82,1.62-2.08-1.2a10.61,10.61,0,0,1-8.07.36V254.7l1.28-1.27-1.28.35a8.21,8.21,0,0,1-6.28-.72c-1.26-.73-1.85-1.52-1.85-2.34v-2.17l.23-.94-.77-.45v-2.23l2.09,1.21a3.23,3.23,0,0,0-1.55,2.39v0c0,.8.62,1.58,1.85,2.29,2.74,1.58,5.45,1.06,7.94.26,2.31-.75,4-1.64,5.33-.87.83.48.57,1.06-.35,1.6a4.65,4.65,0,0,1-4,.23l-2.67,2.64a9.69,9.69,0,0,0,1.47.43,11,11,0,0,0,6.6-.8l2.08,1.21Z" style="fill: rgb(245, 245, 245); transform-origin: 396.52px 251.345px;" id="eld9dla2s7ep8" class="animable"></path><polygon points="402.44 254.34 402.44 256.56 404.52 257.76 404.52 255.54 402.44 254.34" style="fill: rgb(245, 245, 245); transform-origin: 403.48px 256.05px;" id="elwbdfdi2uls" class="animable"></polygon></g></g><path d="M406.87,253.64l-1.61-.93a2.74,2.74,0,0,0,1.61-2.47,1.5,1.5,0,0,0,0-.22c-.07-.77-.63-1.51-1.8-2.18h0a7.4,7.4,0,0,0-3.74-1H401l-.33,0-.3,0h-.12l-.22,0a17.23,17.23,0,0,0-1.82.38l-.85.25-1.18.38-.45.16a13.27,13.27,0,0,1-2.5.71,2.52,2.52,0,0,1-1.07,0,2.21,2.21,0,0,1-.5-.21c-.63-.36-.73-.92.45-1.6a4.12,4.12,0,0,1,3.62-.38l2.51-2.52a10.73,10.73,0,0,0-7.56.42l-2.09-1.2-2.84,1.64,2.09,1.2a3.21,3.21,0,0,0-1.55,2.39v0c0,.8.61,1.58,1.85,2.29,2.74,1.58,5.46,1.06,7.94.26,2.31-.76,4-1.64,5.33-.88.83.49.57,1.07-.35,1.6a4.58,4.58,0,0,1-4,.23l-2.67,2.65a9.69,9.69,0,0,0,1.47.43,11,11,0,0,0,6.6-.8l2.08,1.21,2.82-1.62Z" style="fill: #33D761; transform-origin: 396.555px 249.34px;" id="elr5bpoh9byp" class="animable"></path><g id="eljiahamk3nf"><path d="M406.87,253.64l-1.61-.93a2.74,2.74,0,0,0,1.61-2.47,1.5,1.5,0,0,0,0-.22c-.07-.77-.63-1.51-1.8-2.18h0a7.4,7.4,0,0,0-3.74-1H401l-.33,0-.3,0h-.12l-.22,0a17.23,17.23,0,0,0-1.82.38l-.85.25-1.18.38-.45.16a13.27,13.27,0,0,1-2.5.71,2.52,2.52,0,0,1-1.07,0,2.21,2.21,0,0,1-.5-.21c-.63-.36-.73-.92.45-1.6a4.12,4.12,0,0,1,3.62-.38l2.51-2.52a10.73,10.73,0,0,0-7.56.42l-2.09-1.2-2.84,1.64,2.09,1.2a3.21,3.21,0,0,0-1.55,2.39v0c0,.8.61,1.58,1.85,2.29,2.74,1.58,5.46,1.06,7.94.26,2.31-.76,4-1.64,5.33-.88.83.49.57,1.07-.35,1.6a4.58,4.58,0,0,1-4,.23l-2.67,2.65a9.69,9.69,0,0,0,1.47.43,11,11,0,0,0,6.6-.8l2.08,1.21,2.82-1.62Z" style="fill: rgb(245, 245, 245); opacity: 0.7; transform-origin: 396.555px 249.34px;" class="animable" id="el0wjfarftd1ig"></path></g><path d="M419.94,243.31a18.13,18.13,0,0,0-6.67-6.17c-10.91-6.29-28.59-6.29-39.49,0a18.13,18.13,0,0,0-6.67,6.17H365.6V249h0c.2,4,2.92,7.89,8.16,10.92,10.9,6.3,28.58,6.3,39.49,0,5.24-3,8-7,8.16-10.92h0v-5.71Z" style="fill: #33D761; transform-origin: 393.505px 248.534px;" id="elfn03zhzno1u" class="animable"></path><g id="elxp0spszq57c"><path d="M419.94,243.31a18.13,18.13,0,0,0-6.67-6.17c-10.91-6.29-28.59-6.29-39.49,0a18.13,18.13,0,0,0-6.67,6.17H365.6V249h0c.2,4,2.92,7.89,8.16,10.92,10.9,6.3,28.58,6.3,39.49,0,5.24-3,8-7,8.16-10.92h0v-5.71Z" style="fill: rgb(245, 245, 245); opacity: 0.5; transform-origin: 393.505px 248.534px;" class="animable" id="elhvreltn4dm"></path></g><path d="M413.27,231.91c-10.91-6.29-28.59-6.29-39.49,0s-10.9,16.51,0,22.8,28.58,6.3,39.49,0S424.17,238.21,413.27,231.91Z" style="fill: #33D761; transform-origin: 393.527px 243.312px;" id="elj254yk01hz" class="animable"></path><g id="el02bbv53aje1o"><path d="M413.27,231.91c-10.91-6.29-28.59-6.29-39.49,0s-10.9,16.51,0,22.8,28.58,6.3,39.49,0S424.17,238.21,413.27,231.91Z" style="fill: rgb(245, 245, 245); opacity: 0.6; transform-origin: 393.527px 243.312px;" class="animable" id="el0npey7aoygoo"></path></g><path d="M406.38,236.09a31.42,31.42,0,0,0-25.71,0C377,238,375,240.53,375,243.32s2,5.35,5.67,7.22a31.42,31.42,0,0,0,25.71,0c3.65-1.87,5.67-4.44,5.67-7.22S410,238,406.38,236.09Z" style="fill: #33D761; transform-origin: 393.525px 243.315px;" id="elqz252hjaeq" class="animable"></path><g id="elfydwk3hajwn"><path d="M406.38,236.09a31.42,31.42,0,0,0-25.71,0C377,238,375,240.53,375,243.32s2,5.35,5.67,7.22a31.42,31.42,0,0,0,25.71,0c3.65-1.87,5.67-4.44,5.67-7.22S410,238,406.38,236.09Z" style="fill: rgb(245, 245, 245); opacity: 0.6; transform-origin: 393.525px 243.315px;" class="animable" id="elym8ts6coc8p"></path></g><path d="M412.66,233c-5.09-2.94-11.89-4.56-19.14-4.56s-14,1.62-19.13,4.56c-4.89,2.82-7.57,6.49-7.57,10.35s2.68,7.52,7.57,10.34c5.09,2.94,11.88,4.56,19.13,4.56s14.05-1.62,19.14-4.56c4.88-2.82,7.57-6.49,7.57-10.34S417.54,235.79,412.66,233Zm-6.28,17.57a31.42,31.42,0,0,1-25.71,0c-3.66-1.87-5.67-4.44-5.67-7.22s2-5.36,5.67-7.23a31.42,31.42,0,0,1,25.71,0c3.65,1.87,5.67,4.44,5.67,7.23S410,248.67,406.38,250.54Z" style="fill: #33D761; transform-origin: 393.525px 243.345px;" id="el4zfa97iztkn" class="animable"></path><g id="el9llplfet8ih"><path d="M412.66,233c-5.09-2.94-11.89-4.56-19.14-4.56s-14,1.62-19.13,4.56c-4.89,2.82-7.57,6.49-7.57,10.35s2.68,7.52,7.57,10.34c5.09,2.94,11.88,4.56,19.13,4.56s14.05-1.62,19.14-4.56c4.88-2.82,7.57-6.49,7.57-10.34S417.54,235.79,412.66,233Zm-6.28,17.57a31.42,31.42,0,0,1-25.71,0c-3.66-1.87-5.67-4.44-5.67-7.22s2-5.36,5.67-7.23a31.42,31.42,0,0,1,25.71,0c3.65,1.87,5.67,4.44,5.67,7.23S410,248.67,406.38,250.54Z" style="fill: rgb(245, 245, 245); opacity: 0.7; transform-origin: 393.525px 243.345px;" class="animable" id="elq0tm8m9a0u"></path></g><ellipse cx="393.52" cy="243.31" rx="17.56" ry="9.01" style="fill: #33D761; transform-origin: 393.52px 243.31px;" id="el0orhvj6z8x4b" class="animable"></ellipse><g id="elqz37o243pgs"><ellipse cx="393.52" cy="243.31" rx="17.56" ry="9.01" style="fill: rgb(245, 245, 245); opacity: 0.5; transform-origin: 393.52px 243.31px;" class="animable" id="ellgow8en8ha"></ellipse></g><path d="M405.94,239.33c-6.86-3.52-18-3.52-24.83,0-2.84,1.45-4.5,3.28-5,5.18.49,1.89,2.15,3.72,5,5.18,6.85,3.51,18,3.51,24.83,0,2.84-1.46,4.5-3.29,5-5.18C410.44,242.61,408.78,240.78,405.94,239.33Z" style="fill: #33D761; transform-origin: 393.525px 244.506px;" id="ell07t0pos26e" class="animable"></path><g id="elp1btteo6kp"><path d="M405.94,239.33c-6.86-3.52-18-3.52-24.83,0-2.84,1.45-4.5,3.28-5,5.18.49,1.89,2.15,3.72,5,5.18,6.85,3.51,18,3.51,24.83,0,2.84-1.46,4.5-3.29,5-5.18C410.44,242.61,408.78,240.78,405.94,239.33Z" style="fill: rgb(245, 245, 245); opacity: 0.6; transform-origin: 393.525px 244.506px;" class="animable" id="el7suxyhtqt3c"></path></g><polygon points="395.19 237.08 395.19 239.65 394.31 240.58 392.68 242.28 392.68 239.6 395.19 237.08" style="fill: #33D761; transform-origin: 393.935px 239.68px;" id="el50exjwt6geb" class="animable"></polygon><path d="M392.68,239.6v2.68H387.6v-3.14S392.3,238.42,392.68,239.6Z" style="fill: #33D761; transform-origin: 390.14px 240.601px;" id="elkubewphhl8j" class="animable"></path><path d="M404.34,246.91v2.23l-2.82,1.62-2.08-1.2a10.61,10.61,0,0,1-8.07.36V247.7l1.28-1.27-1.28.35a8.21,8.21,0,0,1-6.28-.72c-1.26-.73-1.85-1.52-1.85-2.34v-2.17l.23-.94-.77-.45v-2.23l2.09,1.21a3.23,3.23,0,0,0-1.55,2.39v0c0,.8.62,1.58,1.85,2.29,2.74,1.58,5.45,1.06,7.94.26,2.31-.75,4-1.64,5.33-.87.83.48.57,1.06-.35,1.6a4.65,4.65,0,0,1-4,.23l-2.67,2.64a9.69,9.69,0,0,0,1.47.43,11,11,0,0,0,6.6-.8l2.08,1.21Z" style="fill: #33D761; transform-origin: 393.52px 244.345px;" id="elgvq3hoaijlj" class="animable"></path><polygon points="399.44 247.34 399.44 249.56 401.52 250.76 401.52 248.54 399.44 247.34" style="fill: #33D761; transform-origin: 400.48px 249.05px;" id="elsk9zaj7psy" class="animable"></polygon><g id="el9nbv3exyu5o"><g style="opacity: 0.5; transform-origin: 393.52px 243.92px;" class="animable" id="elcrqtew2uc49"><polygon points="395.19 237.08 395.19 239.65 394.31 240.58 392.68 242.28 392.68 239.6 395.19 237.08" style="fill: rgb(245, 245, 245); transform-origin: 393.935px 239.68px;" id="eltdb4dfei68b" class="animable"></polygon><path d="M392.68,239.6v2.68H387.6v-3.14S392.3,238.42,392.68,239.6Z" style="fill: rgb(245, 245, 245); transform-origin: 390.14px 240.601px;" id="elaonpfvmaol" class="animable"></path><path d="M404.34,246.91v2.23l-2.82,1.62-2.08-1.2a10.61,10.61,0,0,1-8.07.36V247.7l1.28-1.27-1.28.35a8.21,8.21,0,0,1-6.28-.72c-1.26-.73-1.85-1.52-1.85-2.34v-2.17l.23-.94-.77-.45v-2.23l2.09,1.21a3.23,3.23,0,0,0-1.55,2.39v0c0,.8.62,1.58,1.85,2.29,2.74,1.58,5.45,1.06,7.94.26,2.31-.75,4-1.64,5.33-.87.83.48.57,1.06-.35,1.6a4.65,4.65,0,0,1-4,.23l-2.67,2.64a9.69,9.69,0,0,0,1.47.43,11,11,0,0,0,6.6-.8l2.08,1.21Z" style="fill: rgb(245, 245, 245); transform-origin: 393.52px 244.345px;" id="elgb8tdhaggv" class="animable"></path><polygon points="399.44 247.34 399.44 249.56 401.52 250.76 401.52 248.54 399.44 247.34" style="fill: rgb(245, 245, 245); transform-origin: 400.48px 249.05px;" id="el00w3jp5tsyf3q" class="animable"></polygon></g></g><path d="M403.87,246.64l-1.61-.93a2.74,2.74,0,0,0,1.61-2.47,1.5,1.5,0,0,0,0-.22c-.07-.77-.63-1.51-1.8-2.18h0a7.4,7.4,0,0,0-3.74-1H398l-.33,0-.3,0h-.12l-.22,0a17.23,17.23,0,0,0-1.82.38l-.85.25-1.18.38-.45.16a13.27,13.27,0,0,1-2.5.71,2.52,2.52,0,0,1-1.07,0,2.21,2.21,0,0,1-.5-.21c-.63-.36-.73-.92.45-1.6a4.12,4.12,0,0,1,3.62-.38l2.51-2.52a10.73,10.73,0,0,0-7.56.42l-2.09-1.2-2.84,1.64,2.09,1.2a3.21,3.21,0,0,0-1.55,2.39v0c0,.8.61,1.58,1.85,2.29,2.74,1.58,5.46,1.06,7.94.26,2.31-.76,4-1.64,5.33-.88.83.49.57,1.07-.35,1.6a4.58,4.58,0,0,1-4,.23l-2.67,2.65a9.69,9.69,0,0,0,1.47.43,11.05,11.05,0,0,0,6.6-.79l2.08,1.2,2.82-1.62Z" style="fill: #33D761; transform-origin: 393.555px 242.34px;" id="eljp3zxe4skws" class="animable"></path><g id="elz6pp30j0o7l"><path d="M403.87,246.64l-1.61-.93a2.74,2.74,0,0,0,1.61-2.47,1.5,1.5,0,0,0,0-.22c-.07-.77-.63-1.51-1.8-2.18h0a7.4,7.4,0,0,0-3.74-1H398l-.33,0-.3,0h-.12l-.22,0a17.23,17.23,0,0,0-1.82.38l-.85.25-1.18.38-.45.16a13.27,13.27,0,0,1-2.5.71,2.52,2.52,0,0,1-1.07,0,2.21,2.21,0,0,1-.5-.21c-.63-.36-.73-.92.45-1.6a4.12,4.12,0,0,1,3.62-.38l2.51-2.52a10.73,10.73,0,0,0-7.56.42l-2.09-1.2-2.84,1.64,2.09,1.2a3.21,3.21,0,0,0-1.55,2.39v0c0,.8.61,1.58,1.85,2.29,2.74,1.58,5.46,1.06,7.94.26,2.31-.76,4-1.64,5.33-.88.83.49.57,1.07-.35,1.6a4.58,4.58,0,0,1-4,.23l-2.67,2.65a9.69,9.69,0,0,0,1.47.43,11.05,11.05,0,0,0,6.6-.79l2.08,1.2,2.82-1.62Z" style="fill: rgb(245, 245, 245); opacity: 0.7; transform-origin: 393.555px 242.34px;" class="animable" id="el144eqbml7xn"></path></g><path d="M422.94,234.31a18.13,18.13,0,0,0-6.67-6.17c-10.91-6.29-28.59-6.29-39.49,0a18.13,18.13,0,0,0-6.67,6.17H368.6V240h0c.2,4,2.92,7.89,8.16,10.92,10.9,6.3,28.58,6.3,39.49,0,5.24-3,8-7,8.16-10.92h0v-5.71Z" style="fill: #33D761; transform-origin: 396.505px 239.534px;" id="el13i415866oy" class="animable"></path><g id="el9j4hax79i3s"><path d="M422.94,234.31a18.13,18.13,0,0,0-6.67-6.17c-10.91-6.29-28.59-6.29-39.49,0a18.13,18.13,0,0,0-6.67,6.17H368.6V240h0c.2,4,2.92,7.89,8.16,10.92,10.9,6.3,28.58,6.3,39.49,0,5.24-3,8-7,8.16-10.92h0v-5.71Z" style="fill: rgb(245, 245, 245); opacity: 0.5; transform-origin: 396.505px 239.534px;" class="animable" id="el1e0grs1ikl3"></path></g><path d="M416.27,222.91c-10.91-6.29-28.59-6.29-39.49,0s-10.9,16.51,0,22.8,28.58,6.3,39.49,0S427.17,229.21,416.27,222.91Z" style="fill: #33D761; transform-origin: 396.527px 234.312px;" id="el8q2r6u469mk" class="animable"></path><g id="elktl19rprdbd"><path d="M416.27,222.91c-10.91-6.29-28.59-6.29-39.49,0s-10.9,16.51,0,22.8,28.58,6.3,39.49,0S427.17,229.21,416.27,222.91Z" style="fill: rgb(245, 245, 245); opacity: 0.6; transform-origin: 396.527px 234.312px;" class="animable" id="elukiy1fxhhr"></path></g><path d="M409.38,227.09a31.42,31.42,0,0,0-25.71,0C380,229,378,231.53,378,234.32s2,5.35,5.67,7.22a31.42,31.42,0,0,0,25.71,0c3.65-1.87,5.67-4.44,5.67-7.22S413,229,409.38,227.09Z" style="fill: #33D761; transform-origin: 396.525px 234.315px;" id="elsau4jgatmpd" class="animable"></path><g id="elakbs5hx15ab"><path d="M409.38,227.09a31.42,31.42,0,0,0-25.71,0C380,229,378,231.53,378,234.32s2,5.35,5.67,7.22a31.42,31.42,0,0,0,25.71,0c3.65-1.87,5.67-4.44,5.67-7.22S413,229,409.38,227.09Z" style="fill: rgb(245, 245, 245); opacity: 0.6; transform-origin: 396.525px 234.315px;" class="animable" id="elkvghhl40ree"></path></g><path d="M415.66,224c-5.09-2.94-11.89-4.56-19.14-4.56s-14,1.62-19.13,4.56c-4.89,2.82-7.57,6.49-7.57,10.35s2.68,7.52,7.57,10.34c5.09,2.94,11.88,4.56,19.13,4.56s14.05-1.62,19.14-4.56c4.88-2.82,7.57-6.49,7.57-10.34S420.54,226.79,415.66,224Zm-6.28,17.57a31.42,31.42,0,0,1-25.71,0c-3.66-1.87-5.67-4.44-5.67-7.22s2-5.36,5.67-7.23a31.42,31.42,0,0,1,25.71,0c3.65,1.87,5.67,4.44,5.67,7.23S413,239.67,409.38,241.54Z" style="fill: #33D761; transform-origin: 396.525px 234.345px;" id="ele56dgiujh9q" class="animable"></path><g id="elkavba6wbg6"><path d="M415.66,224c-5.09-2.94-11.89-4.56-19.14-4.56s-14,1.62-19.13,4.56c-4.89,2.82-7.57,6.49-7.57,10.35s2.68,7.52,7.57,10.34c5.09,2.94,11.88,4.56,19.13,4.56s14.05-1.62,19.14-4.56c4.88-2.82,7.57-6.49,7.57-10.34S420.54,226.79,415.66,224Zm-6.28,17.57a31.42,31.42,0,0,1-25.71,0c-3.66-1.87-5.67-4.44-5.67-7.22s2-5.36,5.67-7.23a31.42,31.42,0,0,1,25.71,0c3.65,1.87,5.67,4.44,5.67,7.23S413,239.67,409.38,241.54Z" style="fill: rgb(245, 245, 245); opacity: 0.7; transform-origin: 396.525px 234.345px;" class="animable" id="el17d9uikj6mn"></path></g><ellipse cx="396.52" cy="234.31" rx="17.56" ry="9.01" style="fill: #33D761; transform-origin: 396.52px 234.31px;" id="elm1kwa3dgxx" class="animable"></ellipse><g id="elkbyf1jj8z4"><ellipse cx="396.52" cy="234.31" rx="17.56" ry="9.01" style="fill: rgb(245, 245, 245); opacity: 0.5; transform-origin: 396.52px 234.31px;" class="animable" id="el9t4w5pgkklq"></ellipse></g><path d="M408.94,230.33c-6.86-3.52-18-3.52-24.83,0-2.84,1.45-4.5,3.28-5,5.18.49,1.89,2.15,3.72,5,5.18,6.85,3.51,18,3.51,24.83,0,2.84-1.46,4.5-3.29,5-5.18C413.44,233.61,411.78,231.78,408.94,230.33Z" style="fill: #33D761; transform-origin: 396.525px 235.506px;" id="elx1onkqy3i8" class="animable"></path><g id="elelbbousa7ug"><path d="M408.94,230.33c-6.86-3.52-18-3.52-24.83,0-2.84,1.45-4.5,3.28-5,5.18.49,1.89,2.15,3.72,5,5.18,6.85,3.51,18,3.51,24.83,0,2.84-1.46,4.5-3.29,5-5.18C413.44,233.61,411.78,231.78,408.94,230.33Z" style="fill: rgb(245, 245, 245); opacity: 0.6; transform-origin: 396.525px 235.506px;" class="animable" id="ellmvc9h7j2oe"></path></g><polygon points="398.19 228.08 398.19 230.65 397.31 231.58 395.68 233.28 395.68 230.6 398.19 228.08" style="fill: #33D761; transform-origin: 396.935px 230.68px;" id="ele795p485j8d" class="animable"></polygon><path d="M395.68,230.6v2.68H390.6v-3.14S395.3,229.42,395.68,230.6Z" style="fill: #33D761; transform-origin: 393.14px 231.601px;" id="elu0l9p47kw7" class="animable"></path><path d="M407.34,237.91v2.23l-2.82,1.62-2.08-1.2a10.61,10.61,0,0,1-8.07.36V238.7l1.28-1.27-1.28.35a8.21,8.21,0,0,1-6.28-.72c-1.26-.73-1.85-1.52-1.85-2.34v-2.17l.23-.94-.77-.45v-2.23l2.09,1.21a3.23,3.23,0,0,0-1.55,2.39v0c0,.8.62,1.58,1.85,2.29,2.74,1.58,5.45,1.06,7.94.26,2.31-.75,4-1.64,5.33-.87.83.48.57,1.06-.35,1.6a4.65,4.65,0,0,1-4,.23l-2.67,2.64a9.69,9.69,0,0,0,1.47.43,11,11,0,0,0,6.6-.8l2.08,1.21Z" style="fill: #33D761; transform-origin: 396.52px 235.345px;" id="elp7jjdskz68" class="animable"></path><polygon points="402.44 238.34 402.44 240.56 404.52 241.76 404.52 239.54 402.44 238.34" style="fill: #33D761; transform-origin: 403.48px 240.05px;" id="elt4aunwpgnl" class="animable"></polygon><g id="elvwakm821fs"><g style="opacity: 0.5; transform-origin: 396.52px 234.92px;" class="animable" id="eljnlplbg00ki"><polygon points="398.19 228.08 398.19 230.65 397.31 231.58 395.68 233.28 395.68 230.6 398.19 228.08" style="fill: rgb(245, 245, 245); transform-origin: 396.935px 230.68px;" id="elk8uap0xyz1d" class="animable"></polygon><path d="M395.68,230.6v2.68H390.6v-3.14S395.3,229.42,395.68,230.6Z" style="fill: rgb(245, 245, 245); transform-origin: 393.14px 231.601px;" id="el4bgf4hvd8xb" class="animable"></path><path d="M407.34,237.91v2.23l-2.82,1.62-2.08-1.2a10.61,10.61,0,0,1-8.07.36V238.7l1.28-1.27-1.28.35a8.21,8.21,0,0,1-6.28-.72c-1.26-.73-1.85-1.52-1.85-2.34v-2.17l.23-.94-.77-.45v-2.23l2.09,1.21a3.23,3.23,0,0,0-1.55,2.39v0c0,.8.62,1.58,1.85,2.29,2.74,1.58,5.45,1.06,7.94.26,2.31-.75,4-1.64,5.33-.87.83.48.57,1.06-.35,1.6a4.65,4.65,0,0,1-4,.23l-2.67,2.64a9.69,9.69,0,0,0,1.47.43,11,11,0,0,0,6.6-.8l2.08,1.21Z" style="fill: rgb(245, 245, 245); transform-origin: 396.52px 235.345px;" id="el5bn12dx7sze" class="animable"></path><polygon points="402.44 238.34 402.44 240.56 404.52 241.76 404.52 239.54 402.44 238.34" style="fill: rgb(245, 245, 245); transform-origin: 403.48px 240.05px;" id="el0phsbb5b9cyq" class="animable"></polygon></g></g><path d="M406.87,237.64l-1.61-.93a2.74,2.74,0,0,0,1.61-2.47,1.5,1.5,0,0,0,0-.22c-.07-.77-.63-1.51-1.8-2.18h0a7.4,7.4,0,0,0-3.74-1H401l-.33,0-.3,0h-.12l-.22,0a17.23,17.23,0,0,0-1.82.38l-.85.25-1.18.38-.45.16a13.27,13.27,0,0,1-2.5.71,2.52,2.52,0,0,1-1.07,0,2.21,2.21,0,0,1-.5-.21c-.63-.36-.73-.92.45-1.6a4.12,4.12,0,0,1,3.62-.38l2.51-2.52a10.73,10.73,0,0,0-7.56.42l-2.09-1.2-2.84,1.64,2.09,1.2a3.21,3.21,0,0,0-1.55,2.39v0c0,.8.61,1.58,1.85,2.29,2.74,1.58,5.46,1.06,7.94.26,2.31-.76,4-1.64,5.33-.88.83.49.57,1.07-.35,1.6a4.58,4.58,0,0,1-4,.23l-2.67,2.65a9.69,9.69,0,0,0,1.47.43,11.05,11.05,0,0,0,6.6-.79l2.08,1.2,2.82-1.62Z" style="fill: #33D761; transform-origin: 396.555px 233.34px;" id="elr3x6wopt26i" class="animable"></path><g id="eldhgz5btp1pq"><path d="M406.87,237.64l-1.61-.93a2.74,2.74,0,0,0,1.61-2.47,1.5,1.5,0,0,0,0-.22c-.07-.77-.63-1.51-1.8-2.18h0a7.4,7.4,0,0,0-3.74-1H401l-.33,0-.3,0h-.12l-.22,0a17.23,17.23,0,0,0-1.82.38l-.85.25-1.18.38-.45.16a13.27,13.27,0,0,1-2.5.71,2.52,2.52,0,0,1-1.07,0,2.21,2.21,0,0,1-.5-.21c-.63-.36-.73-.92.45-1.6a4.12,4.12,0,0,1,3.62-.38l2.51-2.52a10.73,10.73,0,0,0-7.56.42l-2.09-1.2-2.84,1.64,2.09,1.2a3.21,3.21,0,0,0-1.55,2.39v0c0,.8.61,1.58,1.85,2.29,2.74,1.58,5.46,1.06,7.94.26,2.31-.76,4-1.64,5.33-.88.83.49.57,1.07-.35,1.6a4.58,4.58,0,0,1-4,.23l-2.67,2.65a9.69,9.69,0,0,0,1.47.43,11.05,11.05,0,0,0,6.6-.79l2.08,1.2,2.82-1.62Z" style="fill: rgb(245, 245, 245); opacity: 0.7; transform-origin: 396.555px 233.34px;" class="animable" id="el4j66r2rtid3"></path></g></g><defs>     <filter id="active" height="200%">         <feMorphology in="SourceAlpha" result="DILATED" operator="dilate" radius="2"></feMorphology>                <feFlood flood-color="#32DFEC" flood-opacity="1" result="PINK"></feFlood>        <feComposite in="PINK" in2="DILATED" operator="in" result="OUTLINE"></feComposite>        <feMerge>            <feMergeNode in="OUTLINE"></feMergeNode>            <feMergeNode in="SourceGraphic"></feMergeNode>        </feMerge>    </filter>    <filter id="hover" height="200%">        <feMorphology in="SourceAlpha" result="DILATED" operator="dilate" radius="2"></feMorphology>                <feFlood flood-color="#ff0000" flood-opacity="0.5" result="PINK"></feFlood>        <feComposite in="PINK" in2="DILATED" operator="in" result="OUTLINE"></feComposite>        <feMerge>            <feMergeNode in="OUTLINE"></feMergeNode>            <feMergeNode in="SourceGraphic"></feMergeNode>        </feMerge>            <feColorMatrix type="matrix" values="0   0   0   0   0                0   1   0   0   0                0   0   0   0   0                0   0   0   1   0 "></feColorMatrix>    </filter></defs></svg>